<?xml version="1.0" encoding="UTF-8"?><svg id="Layer_1" xmlns="http://www.w3.org/2000/svg" viewBox="0 0 681.62 508.42"><defs><style>.cls-1{fill:#fffe05;}.cls-1,.cls-2{opacity:.09;}.cls-2{fill:#0064ff;}.cls-3{font-family:Zapfino, Zapfino;font-size:60px;}.cls-4{opacity:.55;}.cls-5{opacity:.7;}</style></defs><g class="cls-4"><g><path class="cls-2" d="M4.12,310.04c41.38,24.07,74.01,24.49,97.89,1.26,2.89-1.33,5.93-2.15,9.09-2.45,2.29-.29,4.56-.65,6.82-1.09,2.93-.36,5.66-1.34,8.22-2.95,3.93-2.19,7.93-4.22,12.02-6.1,2.37-1.1,4.64-2.36,6.81-3.79,2.19-1.4,4.42-2.72,6.71-3.94,3.03-1.06,6.05-2.14,9.06-3.26,3.21-1.62,6.36-3.36,9.44-5.22l6.79-3.25c6.18-2.81,12.27-5.8,18.28-8.95,5.79-2.6,11.43-5.49,16.92-8.66l5.73-3.91c3.72-2.75,7.57-5.3,11.55-7.64,4.5-2.79,8.97-5.65,13.39-8.56,4.03-2.2,8.07-4.39,12.13-6.55,3.75-2.03,7.52-4.01,11.31-5.95,4.09-1.68,8.11-3.51,12.05-5.5,2.15-1.53,4.47-2.66,6.98-3.39,2.08-.82,4.22-1.38,6.44-1.69,3.36-1.06,6.25-2.87,8.7-5.43,3.35-2.82,6.99-5.16,10.94-7.03l5.27-2.87c2.63-1.81,5.08-3.83,7.37-6.05,3.03-2.51,6.41-4.42,10.15-5.74l6.7-3.45c6.13-3.65,12.14-7.48,18.03-11.5,7.39-4.82,14.99-9.3,22.79-13.43,7.94-4.21,16.08-8.31,24.35-11.84,2.61-1.03,5.18-2.15,7.71-3.36,2.39-1.15,4.91-1.61,7.54-1.36-3.1-.53-6.21-1.03-9.32-1.51-11.72-1.86-23.44-3.72-35.16-5.58-11.72-1.86-23.44-3.71-35.16-5.56-3.11-.5-6.22-.98-9.33-1.44-5.57,2.78-10.94,5.92-16.41,8.9-8.28,4.52-16.6,8.97-24.73,13.76-7.78,4.64-15.43,9.51-22.92,14.6-4.81,3.52-9.77,6.82-14.86,9.9-3.35,2.09-6.72,4.13-10.13,6.12-3.11,2-6.42,3.55-9.92,4.64-2.26,1.24-4.56,2.4-6.9,3.48l-5.01,2.39c-3.7,1.79-7.34,3.71-10.9,5.77-2.89,1.02-5.63,2.36-8.21,4.03l-4.73,2.41c-3.23,1.46-6.32,3.17-9.27,5.14-7.94,4.75-16.06,9.16-23.88,14.1-8.35,5.28-16.71,10.76-25.61,15.1-5.32,2.59-10.9,4.6-16.3,7-12.21,5.43-23.25,13.07-35.42,18.6l-6.84,3.04c-3.17,1.25-6.21,2.79-9.09,4.61-4.6,2.48-9.3,4.8-13.94,7.19-6.55,3.38-13.45,5.49-20.44,7.7-5.11,1.61-10.21,3.13-15.36,4.59-3.04,.76-6.03,1.67-8.98,2.75-1.62,2.09-3.39,4.04-5.3,5.87l89.87,10.52c-.02-1.98,.06-3.96,.25-5.93,.24-1.47,.22-2.93-.07-4.38l-2.44,.13c-4.97,.3-9.93,.6-14.9,.92-16.95,1.06-33.91,2.12-50.86,3.2l-15.16,.96c-3.25,.19-6.5,.41-9.75,.65Z"/><path class="cls-2" d="M12.37,309.83c40.04,30.6,72.46,34.62,97.27,12.08,2.89-1.3,5.92-2.06,9.08-2.29l4.57-.61c3.75-.28,7.26-1.38,10.53-3.3,3.92-2.2,7.91-4.24,11.99-6.13l4.52-2.39c2.9-1.93,5.88-3.73,8.94-5.4,3.05-1.05,6.08-2.12,9.12-3.21l4.84-2.56c3.65-2.27,7.45-4.25,11.41-5.93,6.17-2.81,12.26-5.78,18.27-8.93l11.26-5.49c4.04-1.99,7.84-4.37,11.4-7.12,3.68-2.79,7.5-5.36,11.46-7.73l6.69-4.26c4.67-3.32,9.58-6.24,14.74-8.74,3.88-2.11,7.79-4.18,11.73-6.19,3.55-1.95,7.23-3.64,11.03-5.07,3.25-1.45,6.41-3.07,9.48-4.87,2.13-.93,4.34-1.58,6.63-1.95,2.3-.31,4.45-1.09,6.45-2.33,3.16-2.68,6.43-5.23,9.81-7.64,2.67-1.49,5.36-2.97,8.05-4.43,2.32-1.09,4.42-2.5,6.31-4.25,2.18-2.24,4.57-4.22,7.17-5.94,3.35-1.54,6.66-3.17,9.93-4.88,11.42-5.86,21.65-13.78,32.72-20.27,8.92-5.24,18.28-10.07,27.66-14.46,3.95-1.87,7.96-3.61,12.03-5.21,2.49-1.32,5.11-2.31,7.85-2.97l-23.76-5.54,30.59,7.19c-3.04-.96-6.08-1.91-9.13-2.83-11.49-3.51-22.97-7.02-34.46-10.53-11.49-3.51-22.98-7.01-34.47-10.51-3.04-.94-6.09-1.86-9.15-2.75-12.57,6.14-24.89,12.91-37.12,19.71-6.71,3.65-13.28,7.54-19.7,11.68-7.81,5.06-15.52,10.25-23.14,15.58l-6.63,4.12c-4.4,2.84-8.95,5.4-13.66,7.68-2.27,.64-4.4,1.61-6.38,2.9-2.81,1.4-5.64,2.77-8.48,4.11l-5.51,2.83c-2.83,1.9-5.84,3.41-9.04,4.54-3.02,1.73-6.1,3.33-9.25,4.8-2.4,.98-4.69,2.18-6.86,3.59-7.36,4.44-14.96,8.43-22.3,12.92-7.74,4.74-15.29,9.78-23.16,14.32-3.9,2.35-7.94,4.41-12.13,6.16-3.54,1.48-7.07,2.98-10.6,4.48-9.91,4.38-18.87,10.47-28.53,15.35-4.51,2.22-9.08,4.31-13.71,6.27-3.18,1.23-6.2,2.76-9.08,4.6-2.38,1.29-4.78,2.52-7.22,3.68-2.29,1.07-4.52,2.26-6.69,3.55-2.92,1.43-5.87,2.79-8.85,4.08-3.7,1.24-7.43,2.4-11.18,3.49-4.91,1.47-9.84,2.81-14.84,3.95-2.93,.51-5.82,1.2-8.67,2.07-1.86,1.99-3.87,3.83-6.02,5.5l88,20.75c-.3-2.04-.47-4.08-.52-6.13,.13-1.55-.13-3.02-.8-4.42l-2.37-.15c-4.83-.26-9.65-.52-14.48-.77-16.48-.86-32.96-1.71-49.44-2.56l-14.74-.75c-3.16-.17-6.32-.32-9.49-.45Z"/><path class="cls-2" d="M78.41,299.72c4.4-.4,8.75-.03,13.03,1.1,9.26,1.57,18.53,3.11,27.8,4.61,1.13,.2,2.26,.38,3.39,.54,3.04-.09,5.98-.66,8.81-1.71l-14.53-.95c.63,.48,1.32,.72,2.06,.72,1.28,.04,2.56,.07,3.84,.08,3.72,.06,7.51,.34,11.23,.14,2.68-.14,6.2-1.09,8.66-1.86,4.39-1.63,8.56-3.68,12.53-6.16,3.57-1.84,7.1-3.77,10.57-5.79,2.83-2.06,5.79-3.91,8.87-5.56,2.99-1.08,6-2.08,9.04-3.02,5.64-2.45,10.92-5.81,16.43-8.54,6.04-2.86,12.06-5.77,18.05-8.74,5.85-2.49,11.54-5.32,17.05-8.49,4-2.81,7.9-5.75,11.68-8.84,3-2.17,6.04-4.27,9.14-6.3,3.31-2.22,6.63-4.43,9.96-6.63,5.28-2.91,10.63-5.68,16.04-8.33,4.73-2.55,9.61-4.75,14.65-6.61,3.21-1.34,6.32-2.86,9.35-4.56,2.15-.93,4.38-1.51,6.69-1.75,2.25-.17,4.37-.85,6.36-2.02,3.38-2.52,6.68-5.15,9.89-7.89,3.52-2.3,7.12-4.45,10.8-6.47,2.66-1.93,5.13-4.08,7.41-6.45,3.05-2.74,6.48-4.9,10.29-6.49l6.58-3.18c6.15-3.39,12.1-7.13,17.83-11.21,12.48-7.96,25.48-14.95,38.98-21.03,3.93-1.81,7.92-3.45,11.98-4.92,2.46-1.29,5.05-2.15,7.78-2.6l-.42-.03,4.08,.28-15.6-2.42,3.84,1.19c2.42,.75,4.97,1.2,7.43,1.77,1.96,.45,3.92,.9,5.88,1.35,.52,.13,1.04,.24,1.57,.32-.95-1.29-2.12-2.05-3.53-2.29-1.25-.21-2.51-.42-3.76-.61-3.65-.57-7.34-1.33-11.02-1.69s-7.16,.84-10.38,2.23c-7.5,3.24-14.97,6.43-22.31,10.04-6.67,3.2-13.22,6.64-19.64,10.32-7.61,4.64-15.12,9.44-22.53,14.39-7.88,4.59-16.38,7.79-23.46,13.67l-3.48,2.97c-2.84,2.28-5.86,4.28-9.06,6.02-3.8,2.32-7.38,4.95-10.73,7.89-2.5,2.03-5.3,3.46-8.4,4.29-3.18,.52-6.24,1.45-9.17,2.78-3.07,1.62-6.19,3.13-9.37,4.53-3.81,1.47-7.52,3.15-11.13,5.04-3.92,1.94-7.83,3.91-11.72,5.91-9.47,4.98-18.43,10.85-27.01,17.24-3.66,2.97-7.46,5.75-11.41,8.33-5.55,3.1-11.23,5.92-17.05,8.48-8.4,4.05-16.75,8.16-25.02,12.48-3.09,1.68-6.24,3.25-9.45,4.69-3.17,1.05-6.28,2.26-9.32,3.63-3.01,1.59-5.92,3.37-8.71,5.31-3.46,2.07-6.98,4.02-10.56,5.87-6.71,3.56-13.58,6.5-20.64,9.26l15.48,.2-27.1-1.37,.42,.06-8.75-1.26,18.14,3.38c-2.02-1.69-3.88-3.55-5.56-5.57-1.37-2.19-3.4-3.43-6.08-3.71-.94,.1-1.87,.23-2.8,.38-3.52,.52-7.04,1.04-10.56,1.57-3.52,.52-7.04,1.05-10.55,1.59-.93,.13-1.87,.28-2.79,.46Z"/><path class="cls-2" d="M83.65,325.36c4.42,1.04,8.49,2.87,12.21,5.5,7.15,4.33,14.38,8.53,21.68,12.6,3.13,1.74,6.45,2.27,9.96,1.59,1.59-1.29,3.39-2.08,5.4-2.4,2.2-.43,4.37-.94,6.53-1.53,2.96-.67,5.79-1.71,8.51-3.12,4.06-2.26,8.15-4.48,12.25-6.66,3.13-1.62,6.11-3.47,8.94-5.56,2.67-1.92,5.6-3.28,8.79-4.06,3.35-.81,6.49-2.11,9.44-3.91,6.11-3.29,12.26-6.41,18.52-9.42,7.4-3.69,14.86-7.27,22.36-10.76,4.23-1.99,8.13-4.49,11.72-7.48,3.73-3.08,7.61-5.95,11.66-8.61,3.33-2.22,6.66-4.44,9.99-6.65,3.56-2.52,7.33-4.68,11.32-6.49,5.08-2.6,10.18-5.15,15.3-7.66,4.06-1.56,8.06-3.26,11.99-5.11,2.86-1.87,5.95-3.17,9.28-3.9,2.23,0,4.32-.5,6.28-1.48,2.56-.81,4.75-2.26,6.59-4.32,3.3-3.09,6.94-5.7,10.92-7.83,3.36-1.53,6.41-3.54,9.13-6.02,2.25-2.35,4.7-4.48,7.34-6.38,4.3-2.45,8.7-4.7,13.2-6.76,10.06-5.52,19.24-12.48,29.18-18.22,6.37-3.65,12.87-7.04,19.51-10.18,5.32-2.68,10.75-5.14,16.29-7.36,2.61-.93,5.17-1.96,7.7-3.09,3.63-1.67,7.13-1.15,10.5,1.56-.52-.37-1.05-.72-1.59-1.05-2.02-1.28-4.04-2.56-6.07-3.83-2.02-1.28-4.05-2.55-6.08-3.81-.53-.35-1.08-.67-1.63-.98-2.28-1.22-4.66-1.45-7.14-.68-2.7,.6-5.28,1.54-7.73,2.83-6.78,2.92-13.45,5.94-20.07,9.24-6.61,3.23-13.11,6.68-19.5,10.34-7.66,4.62-15.22,9.41-22.68,14.36l-6.47,3.58c-4.62,2.07-9.05,4.49-13.28,7.26-2.49,1.84-4.92,3.76-7.29,5.74-2.89,2.23-5.94,4.21-9.16,5.94l-5.52,3.61c-3.07,2.6-6.34,4.91-9.82,6.93-2.69,1.25-5.49,2.14-8.41,2.67-2.44,.75-4.76,1.74-6.98,2.98-2.29,1.2-4.61,2.33-6.98,3.37-5,2.04-9.88,4.34-14.64,6.9-5.42,2.68-10.76,5.52-16.02,8.51l-6.59,4.23c-4.27,2.71-8.45,5.53-12.56,8.48-3.78,2.94-7.68,5.7-11.72,8.28-3.73,2.1-7.54,4.04-11.43,5.81-5.6,2.67-11.17,5.38-16.73,8.14-4.66,2.24-9.27,4.59-13.82,7.04-3.09,1.69-6.24,3.27-9.44,4.73-2.33,.8-4.62,1.69-6.87,2.7-2.32,.9-4.53,2.04-6.61,3.43-6.91,4.17-13.7,8.71-21.14,11.91l-6.56,2.58c-2.79,1.29-5.6,2.55-8.42,3.78-.61,.6-1.05,1.31-1.32,2.13-4.78-1.06-9.36-2.7-13.73-4.92l15.39,9.56c-1.95-2.56-3.85-5.14-5.71-7.76-1.45-2.78-3.71-4.69-6.76-5.75-.74-.19-1.49-.37-2.24-.52-2.82-.61-5.64-1.22-8.46-1.82-2.82-.61-5.64-1.21-8.47-1.8-.75-.17-1.5-.32-2.25-.44Z"/><path class="cls-2" d="M97.74,318.38c-.26,9.67,1.53,12.01,5.39,7.03,2.96-1.33,6.06-2.12,9.3-2.38,2.32-.27,4.63-.63,6.93-1.06,2.95-.34,5.71-1.32,8.27-2.96,3.9-2.21,7.89-4.26,11.96-6.15,2.35-1.09,4.61-2.36,6.76-3.81,2.16-1.42,4.39-2.74,6.67-3.96,3.07-1.05,6.12-2.12,9.17-3.21,3.22-1.62,6.38-3.37,9.46-5.25l6.77-3.24c6.18-2.8,12.28-5.77,18.29-8.92,5.82-2.58,11.48-5.48,16.98-8.68l5.66-3.96c3.65-2.79,7.45-5.35,11.4-7.7,4.47-2.8,8.9-5.65,13.29-8.57,4.04-2.2,8.09-4.37,12.16-6.52,3.77-2.02,7.55-4,11.36-5.93,4.12-1.66,8.16-3.48,12.14-5.45,2.16-1.54,4.5-2.67,7.03-3.38,2.11-.82,4.3-1.37,6.57-1.63,3.39-1.02,6.27-2.85,8.66-5.49,3.27-2.86,6.88-5.21,10.81-7.06l5.29-2.89c2.59-1.82,4.99-3.85,7.21-6.11,2.98-2.56,6.35-4.47,10.1-5.74l6.72-3.42c6.12-3.64,12.13-7.47,18-11.5,7.4-4.84,15.01-9.32,22.84-13.43,7.97-4.2,16.16-8.3,24.48-11.79,2.63-1.02,5.22-2.12,7.78-3.33,3.58-1.82,7.24-1.68,10.96,.42-3.29-1.2-6.59-2.39-9.9-3.55-12.46-4.42-24.91-8.84-37.37-13.26-12.46-4.42-24.92-8.83-37.38-13.24-3.3-1.18-6.61-2.34-9.92-3.48-12.52,6.6-24.94,13.48-37.28,20.42-6.73,3.7-13.32,7.64-19.76,11.82-7.83,5.09-15.58,10.3-23.25,15.62l-6.63,4.05c-4.39,2.78-8.92,5.28-13.6,7.52-2.24,.57-4.33,1.47-6.29,2.7-2.81,1.34-5.62,2.67-8.43,4.01l-5.51,2.85c-2.81,1.88-5.8,3.37-9,4.44-3.05,1.76-6.14,3.42-9.29,4.99-2.4,1.02-4.7,2.25-6.88,3.68-7.39,4.5-15.01,8.59-22.39,13.1-7.73,4.72-15.28,9.71-23.18,14.14-3.86,2.26-7.87,4.24-12.02,5.91-3.5,1.4-6.98,2.83-10.46,4.29-9.97,4.35-18.92,10.58-28.62,15.47-4.49,2.2-9.04,4.28-13.64,6.24-3.18,1.21-6.2,2.73-9.06,4.57-2.38,1.31-4.79,2.57-7.24,3.75-2.28,1.09-4.51,2.27-6.68,3.55-2.9,1.4-5.83,2.74-8.79,4.02-3.66,1.23-7.34,2.4-11.04,3.51-4.93,1.57-9.86,3.15-14.83,4.6-2.96,.74-5.87,1.63-8.73,2.67-1.7,2.04-3.53,3.96-5.49,5.76l94.44,26.19c-.07-2.75-.03-5.5,.11-8.24-3.37-.51-6.74-1.01-10.12-1.48-12.73-1.82-25.45-3.63-38.18-5.43-12.73-1.81-25.45-3.61-38.18-5.41-3.37-.49-6.75-.96-10.13-1.4l-1,2.1,2.55,.27c11.6,1.22,23.21,2.31,34.81,3.45,13.95,1.38,27.91,2.75,41.86,4.12,3.92,.39,7.83,.77,11.75,1.15,2.12,.21,4.25,.41,6.38,.6Z"/><path class="cls-2" d="M.38,309.78c43.68,28.6,78.19,30.59,103.54,5.98,2.93-1.34,5.99-2.17,9.2-2.48,2.29-.29,4.58-.66,6.85-1.1,2.93-.37,5.68-1.36,8.23-2.98,3.92-2.21,7.93-4.26,12.01-6.15,2.36-1.1,4.63-2.37,6.8-3.81,2.18-1.41,4.41-2.73,6.7-3.95,3.04-1.05,6.07-2.13,9.09-3.24,3.22-1.62,6.37-3.37,9.45-5.24l6.79-3.25c6.17-2.81,12.26-5.79,18.27-8.94,5.8-2.59,11.45-5.48,16.94-8.67l5.72-3.94c3.7-2.77,7.54-5.33,11.52-7.68,4.49-2.79,8.95-5.65,13.36-8.56,4.03-2.2,8.08-4.37,12.13-6.53,3.75-2.02,7.53-4,11.32-5.94,4.09-1.67,8.12-3.5,12.07-5.48,2.15-1.53,4.48-2.66,6.99-3.38,2.08-.82,4.24-1.38,6.47-1.67,3.37-1.05,6.27-2.87,8.69-5.46,3.33-2.83,6.96-5.18,10.91-7.04l5.28-2.88c2.62-1.81,5.06-3.84,7.33-6.08,3.01-2.53,6.39-4.45,10.14-5.75l6.7-3.43c6.13-3.64,12.13-7.47,18.02-11.49,7.4-4.82,15-9.3,22.81-13.42,7.95-4.21,16.1-8.31,24.38-11.82,2.61-1.03,5.19-2.14,7.72-3.35,2.41-1.15,4.94-1.59,7.58-1.32-3.32-.71-6.65-1.39-9.98-2.05-12.55-2.54-25.1-5.08-37.65-7.61-12.55-2.54-25.1-5.07-37.65-7.59-3.33-.68-6.66-1.34-9.99-1.98-5.57,2.84-10.96,6.01-16.44,9.01-8.28,4.54-16.62,9.01-24.76,13.8-7.81,4.67-15.47,9.56-22.99,14.68-4.81,3.55-9.78,6.86-14.9,9.93-3.35,2.08-6.72,4.11-10.13,6.09-3.08,2-6.37,3.52-9.87,4.55-2.25,1.21-4.54,2.35-6.87,3.41l-5.01,2.38c-3.69,1.81-7.31,3.73-10.87,5.79-2.9,.99-5.64,2.32-8.21,4.01l-4.74,2.45c-3.25,1.46-6.34,3.18-9.3,5.17-7.95,4.79-16.1,9.21-23.95,14.17-8.34,5.27-16.69,10.73-25.6,15.02-5.28,2.55-10.82,4.48-16.18,6.84-12.25,5.39-23.26,13.14-35.45,18.66l-6.81,3.02c-3.18,1.23-6.21,2.76-9.09,4.6-4.59,2.5-9.29,4.84-13.93,7.25-2.94,1.4-5.9,2.74-8.9,4.02-3.77,1.27-7.56,2.48-11.37,3.63-5.07,1.61-10.14,3.21-15.24,4.73-3.03,.8-6.01,1.75-8.95,2.85-1.63,2.08-3.39,4.05-5.29,5.89l95.62,15.47,.19-3.72c2.47-4.89,2.14-7.11-.97-6.67-8.4,.03-16.81,.17-25.21,.28-15.35,.18-30.7,.37-46.04,.57-6.67,.08-13.35,.16-20.02,.26-2.16,.02-4.33,.06-6.49,.11Z"/><path class="cls-2" d="M48.9,315.6c24.56,25.32,45.38,30.62,62.45,15.9,2.74-1,5.56-1.43,8.46-1.29,2.25-.14,4.49-.37,6.72-.68,2.86-.17,5.53-1.05,8.02-2.63,3.87-2.09,7.81-4.05,11.82-5.88,2.38-1.11,4.65-2.39,6.82-3.86,2.18-1.43,4.41-2.78,6.7-4.04,3.05-1.08,6.1-2.16,9.15-3.26,3.17-1.64,6.29-3.37,9.37-5.17l6.76-3.21c6.21-2.82,12.34-5.83,18.37-9.03,5.76-2.59,11.38-5.44,16.87-8.56l5.63-3.86c3.69-2.74,7.5-5.3,11.43-7.68,4.5-2.88,8.97-5.82,13.41-8.81,4.05-2.29,8.13-4.54,12.24-6.74,3.75-2.06,7.53-4.04,11.35-5.96,4.11-1.66,8.15-3.47,12.12-5.42,2.14-1.55,4.47-2.65,6.99-3.33,2.1-.78,4.26-1.3,6.49-1.56,3.32-1.02,6.19-2.79,8.59-5.32,3.33-2.88,6.99-5.24,10.98-7.09l5.18-2.85c2.61-1.82,5.04-3.86,7.28-6.13,3.05-2.47,6.41-4.41,10.09-5.82l6.76-3.58c6.18-3.71,12.23-7.61,18.17-11.69,7.39-4.86,15-9.35,22.84-13.46,7.92-4.16,16.09-8.23,24.37-11.65,2.62-.99,5.19-2.08,7.73-3.27,3.52-1.81,7.09-1.64,10.72,.5-1.61-.75-3.23-1.48-4.86-2.18-6.12-2.71-12.24-5.41-18.37-8.1-6.12-2.7-12.25-5.39-18.38-8.09-1.62-.72-3.25-1.43-4.89-2.11-2.54,.93-5.07,1.88-7.58,2.86-2.67,1.31-5.32,2.65-7.96,4.01-6.77,3.41-13.53,6.8-20.21,10.38-6.65,3.47-13.14,7.2-19.49,11.2-7.99,5.08-15.87,10.32-23.64,15.72l-6.7,4.23c-4.51,3.01-9.16,5.8-13.94,8.35-2.28,.85-4.4,1.99-6.38,3.42-2.76,1.55-5.55,3.03-8.39,4.43l-5.72,2.91c-2.86,1.96-5.9,3.55-9.12,4.79-2.94,1.6-5.98,3-9.11,4.19-2.28,.86-4.45,1.94-6.51,3.22-7.31,4.18-14.9,7.85-22.13,12.18-8,4.79-15.71,10.06-23.61,15.01-7.42,4.65-15.11,8.33-23.05,11.98-3.71,1.61-7.31,3.41-10.82,5.41-5.94,3.13-11.83,6.34-17.68,9.64-4.47,2.23-9.01,4.32-13.61,6.27-3.07,1.27-6,2.8-8.81,4.58-2.38,1.21-4.77,2.41-7.17,3.59-2.33,1.09-4.58,2.34-6.74,3.74-3,1.64-6.05,3.17-9.15,4.6-3.56,1.32-7.17,2.51-10.82,3.55l-5.05,1.36c-2.83,.31-5.65,.61-8.48,.89-2.41-.48-4.85-.71-7.31-.71-2.48,1.36-5.1,2.38-7.84,3.06l46.38,19.89c-1.26-2.19-2.41-4.42-3.45-6.72-.59-2.13-1.9-3.69-3.93-4.68-1.72-.29-3.44-.57-5.16-.82-6.5-.99-12.99-1.97-19.49-2.95-6.5-.98-12.99-1.96-19.49-2.93-1.72-.27-3.45-.52-5.17-.74Z"/><path class="cls-2" d="M74.05,306.28c4.02-.16,7.96,.37,11.8,1.58,11.04,2.57,22.12,4.9,33.25,7.01,3.07,.79,6.02,.45,8.86-.99,2.29-1.03,4.68-1.49,7.18-1.37,2.29-.16,4.57-.41,6.84-.75,2.86-.2,5.54-1.07,8.05-2.62,3.92-2.09,7.88-4.08,11.89-6,3.23-1.61,6.32-3.46,9.27-5.55,2.7-1.96,5.65-3.37,8.87-4.22,3.4-.93,6.6-2.34,9.58-4.22,5.93-3.25,12.04-6.05,18.13-8.99,7.53-3.87,15.14-7.6,22.81-11.19,3.95-1.88,7.65-4.15,11.1-6.83,7.14-5.03,14.38-9.89,21.61-14.8,3.65-2.62,7.5-4.92,11.55-6.91,5.06-2.78,10.17-5.45,15.34-8,4.1-1.63,8.14-3.4,12.13-5.3,2.79-1.87,5.81-3.16,9.07-3.89,2.32-.1,4.5-.68,6.53-1.74,2.45-.83,4.58-2.21,6.38-4.15,3.4-2.95,7.12-5.41,11.18-7.36,3.2-1.45,6.11-3.34,8.73-5.68,2.16-2.27,4.54-4.27,7.15-5.99,4.43-2.43,8.88-4.84,13.33-7.23,10.06-5.88,19.5-12.74,29.57-18.63,6.33-3.71,12.8-7.14,19.42-10.3,5.35-2.72,10.8-5.22,16.35-7.51,2.61-.96,5.18-2.02,7.71-3.18,2.44-1.12,4.99-1.47,7.63-1.05l-26.17-4.66c29.13,7.21,38.61,9.28,28.44,6.19-2.06-.58-4.12-1.14-6.18-1.7-6.02-1.64-12.03-3.4-18.1-4.87-2.76-.75-5.54-.3-8.34,1.36-2.09,.72-4.13,1.56-6.12,2.53-7.51,3.47-15.01,6.89-22.38,10.66-6.6,3.3-13.05,6.86-19.35,10.7-7.91,4.89-15.74,9.91-23.47,15.08-7.8,4.88-15.92,9.43-23.45,14.73l-3.45,2.59c-2.59,1.81-5.3,3.45-8.11,4.91-4.07,2.01-7.97,4.33-11.68,6.94-2.59,1.32-5.23,2.53-7.92,3.63-2.97,.82-5.86,1.85-8.68,3.1-3.26,1.78-6.56,3.45-9.92,5.03-3.78,1.64-7.48,3.45-11.08,5.45-4.05,2.09-8,4.35-11.86,6.78-9.48,5.8-18.32,12.54-27.82,18.31-8.66,5.26-17.82,9.36-26.84,13.95-6.3,3.46-12.69,6.72-19.19,9.79l-6.82,3.12c-2.94,1.33-5.81,2.8-8.61,4.41-3.23,1.38-6.42,2.84-9.57,4.37-3.07,1.85-6.16,3.69-9.26,5.5-3.41,2-6.98,3.69-10.69,5.07-3.51,1.45-7.09,2.7-10.74,3.75-3.09,.46-6.19,.89-9.3,1.28l7.08,1.04c-3.82-.58-7.71-1.54-11.58-1.54-1.38-.08-2.74,.06-4.09,.42-2.7,.57-5.43,.73-8.2,.48l27.2,6.02c-1.6-1.95-3.04-4.02-4.32-6.19-.89-2.22-2.53-3.65-4.92-4.29-1.25,.03-2.5,.08-3.76,.16-4.72,.24-9.44,.49-14.15,.74-4.72,.25-9.44,.5-14.15,.76-1.25,.06-2.5,.14-3.75,.24Z"/><path class="cls-2" d="M102.07,325.84l5.42,10.06,2.6-2.5c2.86-1.17,5.84-1.77,8.93-1.81,2.29-.19,4.57-.47,6.83-.83,2.91-.23,5.63-1.16,8.16-2.77,3.87-2.15,7.81-4.14,11.84-5.98,2.36-1.09,4.61-2.35,6.75-3.81,2.16-1.43,4.38-2.75,6.67-3.98,3.07-1.03,6.13-2.09,9.18-3.17,3.2-1.63,6.34-3.37,9.42-5.22l6.75-3.21c6.2-2.8,12.3-5.78,18.32-8.95,5.8-2.58,11.45-5.46,16.95-8.63l5.62-3.94c3.64-2.79,7.43-5.35,11.37-7.7,4.47-2.83,8.91-5.72,13.32-8.66,4.05-2.23,8.12-4.43,12.21-6.6,3.76-2.03,7.56-4.02,11.38-5.95,4.12-1.65,8.17-3.46,12.15-5.43,2.15-1.56,4.49-2.68,7.02-3.36,2.12-.79,4.3-1.32,6.56-1.57,3.37-1.01,6.25-2.83,8.63-5.46,3.27-2.89,6.88-5.26,10.83-7.1l5.27-2.86c2.59-1.83,4.99-3.88,7.19-6.16,2.99-2.53,6.36-4.44,10.08-5.74l6.74-3.48c6.15-3.67,12.18-7.53,18.07-11.6,7.4-4.86,15.03-9.35,22.87-13.47,7.96-4.18,16.15-8.27,24.46-11.7,2.63-1,5.22-2.09,7.77-3.29,3.6-1.83,7.24-1.63,10.92,.59-2.54-1.13-5.09-2.24-7.65-3.32-9.64-4.14-19.27-8.28-28.91-12.41-9.64-4.13-19.28-8.26-28.92-12.39-2.55-1.11-5.11-2.19-7.68-3.25-12.43,5.82-24.55,12.43-36.57,19.05-6.72,3.61-13.28,7.48-19.69,11.63-7.96,5.16-15.82,10.47-23.58,15.93l-6.68,4.15c-4.43,2.9-9.01,5.52-13.75,7.88-2.24,.63-4.33,1.59-6.27,2.89-2.77,1.4-5.56,2.76-8.37,4.08l-5.61,2.89c-2.8,1.94-5.8,3.45-9.01,4.53-3.01,1.71-6.09,3.27-9.24,4.7-2.35,.93-4.58,2.09-6.69,3.46-7.38,4.42-15.01,8.37-22.35,12.85-7.87,4.81-15.5,9.98-23.46,14.65-3.9,2.41-7.95,4.51-12.16,6.31-3.47,1.48-6.94,2.94-10.42,4.4-9.96,4.34-18.92,10.45-28.6,15.32-4.45,2.2-8.97,4.24-13.55,6.15-3.12,1.17-6.09,2.67-8.89,4.48-2.37,1.27-4.77,2.48-7.19,3.64-2.29,1.06-4.52,2.25-6.68,3.56-2.91,1.44-5.86,2.81-8.84,4.09-3.51,1.15-7.06,2.18-10.64,3.09-4.53,1.2-9.16,2.4-13.82,2.94-2.65,.04-5.28,.27-7.9,.7-1.93,1.72-4,3.24-6.22,4.56l71.92,28.59c-.72-2.88-1.29-5.8-1.69-8.74-2.56-.62-5.13-1.22-7.7-1.8-9.69-2.23-19.38-4.45-29.07-6.66-9.69-2.22-19.38-4.43-29.07-6.64-2.57-.6-5.14-1.17-7.72-1.73l-1.62,1.71c2.58,.49,5.16,.95,7.75,1.4,9.75,1.72,19.49,3.43,29.24,5.14,9.75,1.71,19.49,3.42,29.24,5.12,2.58,.46,5.17,.9,7.76,1.32Z"/><path class="cls-2" d="M97.2,313.42c7.74,4.03,15.51,5.04,23.33,3.04,3.1-1.12,6.07-2.51,8.92-4.15,5.25-2.82,10.73-5.15,15.78-8.33,2.17-1.41,4.4-2.73,6.69-3.95,3.05-1.05,6.1-2.13,9.13-3.24l4.84-2.56c3.64-2.28,7.43-4.25,11.39-5.93,4.26-1.91,8.46-3.94,12.61-6.09,5.62-2.84,11.27-5.63,16.94-8.36,3.02-1.44,5.86-3.15,8.53-5.14,2.88-1.98,5.74-3.99,8.57-6.04,4.14-2.6,8.28-5.21,12.41-7.83l6.63-4.32c5.38-2.92,10.78-5.82,16.19-8.68,3.54-2.05,7.21-3.85,10.99-5.39,2.86-1.18,5.66-2.47,8.42-3.88,2.16-1.54,4.49-2.67,7.01-3.39,2.1-.83,4.27-1.38,6.52-1.67,3.37-1.03,6.26-2.86,8.67-5.47l5.44-4.05c3.56-1.98,7.12-3.93,10.7-5.87,3.81-2.66,6.87-6.19,10.81-8.67,3.36-1.52,6.67-3.14,9.93-4.85,3.45-1.66,6.77-3.57,9.94-5.73,7.48-5.02,15.07-9.87,22.78-14.52l11.47-6.39c7.96-4.27,16.13-8.26,24.43-11.82,2.62-1.02,5.21-2.14,7.75-3.35,3.52-1.82,7.13-1.72,10.81,.31-3.25-1.02-6.52-2.02-9.78-2.99-12.31-3.72-24.62-7.44-36.94-11.16-12.31-3.72-24.63-7.43-36.94-11.14-3.26-1-6.53-1.97-9.81-2.92-12.5,6.64-24.91,13.52-37.24,20.47-6.71,3.7-13.29,7.64-19.72,11.81-7.79,5.06-15.5,10.24-23.14,15.53l-6.62,4.05c-4.39,2.79-8.94,5.3-13.64,7.54-2.25,.59-4.36,1.5-6.34,2.73-2.82,1.34-5.64,2.68-8.47,4.02l-5.51,2.84c-2.82,1.87-5.83,3.35-9.02,4.45-3.04,1.76-6.13,3.43-9.28,4.99-2.4,1.03-4.69,2.26-6.87,3.69-7.37,4.49-14.96,8.58-22.32,13.08s-15.24,9.69-23.13,14.1c-3.89,2.27-7.92,4.25-12.09,5.94-3.53,1.41-7.05,2.85-10.56,4.33-9.94,4.35-18.89,10.55-28.56,15.42-4.51,2.21-9.08,4.3-13.7,6.27-3.18,1.22-6.2,2.75-9.07,4.59-2.38,1.31-4.79,2.56-7.24,3.74-2.28,1.08-4.51,2.26-6.69,3.54-2.92,1.4-5.87,2.74-8.85,4.01-3.72,1.25-7.45,2.44-11.2,3.57-5,1.6-10,3.19-15.04,4.68-2.99,.78-5.94,1.7-8.84,2.78-1.65,2.07-3.43,4.02-5.33,5.85l94.07,20.72c.02-2.73,.14-5.45,.38-8.17,.01-.2-49.16-4.29-48.21-4.21-12.7-1.1-25.4-2.19-38.11-3.28-3.37-.3-6.74-.58-10.11-.83l-.95,2.11,2.55,.13c11.58,.58,23.17,1.01,34.76,1.51,13.93,.6,27.87,1.19,41.8,1.78-.59-.02,18.09,.56,18.1,.73Z"/><path class="cls-2" d="M33.2,310.55c33.53,32.31,60.29,38.28,80.3,17.91,2.86-1.16,5.84-1.77,8.93-1.81,2.28-.19,4.56-.47,6.82-.83,2.91-.24,5.63-1.16,8.17-2.77,3.89-2.15,7.85-4.15,11.89-5.99,2.36-1.09,4.62-2.36,6.77-3.81,2.17-1.42,4.4-2.75,6.68-3.98,3.06-1.04,6.1-2.1,9.14-3.18,3.2-1.63,6.35-3.37,9.43-5.21l6.76-3.22c6.19-2.8,12.3-5.79,18.31-8.96,5.79-2.58,11.44-5.45,16.94-8.61l5.66-3.94c3.66-2.78,7.47-5.35,11.42-7.72,4.48-2.84,8.93-5.73,13.34-8.68,4.04-2.24,8.11-4.44,12.19-6.61,3.76-2.03,7.54-4.02,11.36-5.94,4.11-1.65,8.15-3.46,12.12-5.43,2.14-1.56,4.48-2.67,7.01-3.35,2.1-.79,4.28-1.32,6.52-1.58,3.37-1.02,6.25-2.84,8.65-5.44,3.29-2.88,6.91-5.24,10.87-7.09l5.26-2.86c2.61-1.83,5.02-3.88,7.25-6.16,3.01-2.52,6.37-4.44,10.1-5.77l6.73-3.49c6.15-3.66,12.17-7.53,18.06-11.6,7.4-4.85,15.01-9.33,22.84-13.45,7.95-4.18,16.13-8.27,24.43-11.7,2.62-1,5.21-2.09,7.75-3.29,3.55-1.82,7.15-1.63,10.79,.55-2.5-.96-5.01-1.9-7.52-2.81-9.47-3.5-18.95-7-28.42-10.49-9.47-3.49-18.95-6.98-28.43-10.47-2.51-.94-5.03-1.85-7.55-2.74-2.68,1.25-5.37,2.46-8.07,3.64-2.7,1.46-5.4,2.91-8.12,4.33-6.83,3.58-13.67,7.13-20.43,10.84-6.71,3.58-13.26,7.44-19.65,11.56-7.92,5.12-15.72,10.4-23.42,15.85l-6.66,4.16c-4.44,2.93-9.03,5.58-13.78,7.95-2.26,.66-4.37,1.66-6.32,2.99-2.77,1.43-5.57,2.81-8.4,4.14l-5.6,2.87c-2.81,1.94-5.82,3.46-9.03,4.57-3,1.7-6.08,3.24-9.24,4.63-2.35,.92-4.59,2.06-6.7,3.44-7.36,4.39-14.98,8.29-22.29,12.76-7.85,4.8-15.46,9.99-23.38,14.69-3.91,2.45-7.99,4.59-12.22,6.43-3.5,1.52-7.01,3.02-10.53,4.5-9.92,4.35-18.88,10.39-28.54,15.26-4.48,2.21-9.03,4.27-13.64,6.19-3.13,1.18-6.1,2.69-8.92,4.5-2.37,1.26-4.77,2.46-7.19,3.61-2.3,1.06-4.53,2.24-6.69,3.56-2.93,1.46-5.9,2.84-8.91,4.13-3.58,1.17-7.2,2.22-10.85,3.14-4.62,1.2-9.35,2.34-14.11,2.78-2.71-.03-5.41,.15-8.1,.52-1.95,1.73-4.05,3.25-6.31,4.55l71.72,24.1c-.7-2.86-1.23-5.75-1.58-8.67-2.57-.47-5.13-.92-7.71-1.35-9.7-1.66-19.39-3.31-29.09-4.95-9.7-1.65-19.39-3.29-29.09-4.93-2.57-.45-5.14-.87-7.72-1.27Z"/><path class="cls-2" d="M89.22,328.27c4.37,1.18,8.33,3.18,11.89,6,6.79,4.45,13.7,8.71,20.72,12.78,2.91,1.7,6,2.18,9.28,1.44,1.6-1.34,3.41-2.21,5.45-2.6,2.24-.41,4.47-.91,6.67-1.49,2.97-.64,5.81-1.66,8.52-3.08,4.04-2.27,8.11-4.5,12.21-6.67,3.13-1.62,6.12-3.47,8.96-5.57,2.66-1.93,5.59-3.27,8.78-4.04,3.35-.8,6.5-2.11,9.44-3.91,6.11-3.29,12.26-6.41,18.53-9.42,7.41-3.69,14.86-7.27,22.36-10.76,4.23-1.99,8.14-4.49,11.73-7.5,3.72-3.09,7.61-5.96,11.66-8.61,3.33-2.21,6.65-4.43,9.98-6.64,3.56-2.52,7.33-4.68,11.31-6.48,5.08-2.6,10.18-5.15,15.31-7.66,4.06-1.55,8.06-3.25,11.99-5.1,2.86-1.88,5.95-3.17,9.28-3.89,2.23,.01,4.33-.48,6.28-1.47,2.57-.82,4.76-2.27,6.6-4.36,3.3-3.1,6.94-5.71,10.93-7.84,3.37-1.52,6.41-3.52,9.12-6.01,2.25-2.36,4.69-4.49,7.34-6.4,4.3-2.43,8.7-4.68,13.19-6.73,10.06-5.53,19.24-12.49,29.18-18.23,6.37-3.65,12.88-7.04,19.51-10.18,5.32-2.68,10.75-5.14,16.29-7.36,2.61-.93,5.18-1.96,7.7-3.09,3.64-1.67,7.13-1.14,10.49,1.61-.51-.37-1.04-.72-1.58-1.05-2.01-1.29-4.01-2.58-6.02-3.86-2.01-1.28-4.02-2.56-6.04-3.84-.53-.35-1.07-.68-1.62-.99-2.23-1.28-4.58-1.54-7.05-.79-2.7,.59-5.27,1.53-7.71,2.82-6.78,2.91-13.43,5.93-20.04,9.22-6.61,3.23-13.1,6.68-19.49,10.33-7.68,4.61-15.24,9.4-22.69,14.37l-6.48,3.6c-4.61,2.06-9.03,4.46-13.26,7.21-2.5,1.85-4.94,3.78-7.32,5.78-2.88,2.24-5.93,4.21-9.16,5.9l-5.53,3.6c-3.1,2.61-6.39,4.95-9.87,7.02-2.68,1.26-5.47,2.14-8.38,2.65-2.44,.74-4.76,1.72-6.97,2.96-2.29,1.21-4.61,2.33-6.97,3.38-5,2.03-9.87,4.33-14.63,6.89-5.42,2.68-10.76,5.52-16.01,8.51l-6.6,4.24c-4.27,2.7-8.45,5.51-12.56,8.45-3.79,2.95-7.71,5.72-11.75,8.32-3.73,2.11-7.54,4.05-11.43,5.82-5.59,2.67-11.17,5.39-16.72,8.14-4.66,2.23-9.27,4.57-13.82,7.03-3.09,1.71-6.24,3.29-9.45,4.77-2.32,.79-4.6,1.68-6.85,2.67-2.32,.88-4.52,2.02-6.6,3.41-2.89,1.97-5.86,3.79-8.92,5.47-3.99,2.28-8.04,4.44-12.16,6.48l-6.48,2.51c-2.92,1.27-5.85,2.5-8.79,3.7-.63,.77-1.1,1.63-1.41,2.58-4.34-.97-8.45-2.55-12.33-4.73l14.6,9.47c-1.9-2.64-3.76-5.3-5.59-7.99-1.41-2.84-3.65-4.83-6.72-5.97-.7-.2-1.41-.38-2.12-.54-2.67-.64-5.34-1.28-8.02-1.91-2.67-.64-5.35-1.27-8.02-1.89-.71-.18-1.42-.33-2.14-.47Z"/></g></g><g class="cls-5"><g><path class="cls-1" d="M77.8,341.42c40.01,25.87,72.37,27.79,97.1,5.77,2.95-1.19,6.02-1.87,9.2-2.03,2.3-.18,4.59-.44,6.87-.78,2.94-.23,5.72-1.08,8.34-2.56,4.02-2,8.12-3.84,12.29-5.53,2.41-.99,4.74-2.14,6.98-3.47,2.25-1.3,4.54-2.51,6.89-3.63,3.08-.92,6.15-1.86,9.21-2.84,3.28-1.47,6.51-3.07,9.67-4.77l6.93-2.93c6.3-2.52,12.53-5.22,18.67-8.1,5.9-2.34,11.67-4.96,17.31-7.87l5.9-3.64c3.84-2.57,7.8-4.94,11.89-7.09,4.63-2.58,9.22-5.22,13.77-7.93,4.13-2.02,8.27-4.01,12.42-5.99,3.84-1.85,7.69-3.66,11.57-5.43,4.16-1.49,8.26-3.14,12.3-4.94,2.22-1.43,4.59-2.45,7.13-3.06,2.11-.72,4.29-1.19,6.52-1.4,3.4-.9,6.38-2.58,8.93-5.02,3.47-2.66,7.22-4.83,11.25-6.51l5.4-2.62c2.71-1.68,5.25-3.58,7.64-5.7,3.14-2.37,6.6-4.12,10.4-5.26l6.86-3.14c6.29-3.36,12.47-6.92,18.54-10.66,7.61-4.48,15.4-8.6,23.39-12.37,8.13-3.84,16.45-7.56,24.87-10.7,2.65-.91,5.27-1.91,7.86-3,2.45-1.04,4.98-1.38,7.6-1.01-3.05-.67-6.11-1.32-9.18-1.94-11.54-2.4-23.09-4.8-34.63-7.2-11.54-2.4-23.09-4.79-34.64-7.18-3.06-.65-6.12-1.27-9.19-1.87-5.69,2.53-11.2,5.41-16.8,8.14-8.48,4.13-17,8.2-25.34,12.6-7.99,4.28-15.85,8.78-23.58,13.52-4.97,3.29-10.07,6.36-15.31,9.2-3.44,1.93-6.91,3.81-10.4,5.64-3.2,1.86-6.57,3.25-10.12,4.17-2.31,1.13-4.67,2.18-7.05,3.15l-5.12,2.16c-3.78,1.62-7.5,3.37-11.16,5.26-2.94,.88-5.73,2.1-8.38,3.64l-4.84,2.19c-3.3,1.31-6.46,2.88-9.5,4.71-8.15,4.38-16.46,8.41-24.51,12.98-8.59,4.89-17.19,9.97-26.28,13.9-5.43,2.34-11.1,4.09-16.6,6.24-12.45,4.86-23.83,11.98-36.25,16.94l-6.97,2.72c-3.23,1.1-6.33,2.5-9.3,4.18-4.71,2.27-9.51,4.36-14.26,6.54-6.7,3.07-13.68,4.86-20.77,6.74-5.17,1.37-10.34,2.66-15.55,3.88-3.07,.62-6.1,1.39-9.09,2.33-1.71,2.01-3.56,3.89-5.55,5.63l88.68,14.66c.07-1.97,.23-3.94,.5-5.89,.31-1.45,.35-2.9,.12-4.36l-2.43,.02c-4.94,.07-9.88,.14-14.82,.22-16.86,.27-33.73,.54-50.59,.83l-15.08,.26c-3.24,.04-6.47,.11-9.71,.2Z"/><path class="cls-1" d="M86.02,341.59c38.61,32.31,70.82,37.78,96.65,16.41,2.95-1.16,6.01-1.79,9.18-1.87l4.59-.4c3.76-.1,7.32-1.04,10.67-2.81,4.01-2.02,8.1-3.87,12.26-5.57l4.63-2.18c2.99-1.79,6.05-3.45,9.18-4.98,3.09-.9,6.18-1.83,9.25-2.79l4.95-2.34c3.75-2.1,7.64-3.9,11.67-5.4,6.29-2.52,12.51-5.21,18.66-8.08l11.5-4.96c4.13-1.8,8.03-4,11.72-6.59,3.8-2.62,7.74-5.01,11.81-7.19l6.88-3.95c4.82-3.11,9.86-5.79,15.13-8.05,3.98-1.93,7.98-3.81,12-5.64,3.64-1.78,7.39-3.3,11.25-4.56,3.31-1.3,6.54-2.77,9.69-4.42,2.17-.83,4.41-1.38,6.71-1.64,2.31-.2,4.5-.88,6.55-2.03,3.29-2.53,6.67-4.93,10.16-7.18,2.74-1.37,5.49-2.72,8.25-4.06,2.36-.98,4.53-2.3,6.5-3.95,2.28-2.14,4.76-4,7.44-5.6,3.42-1.38,6.8-2.85,10.14-4.42,11.68-5.33,22.27-12.76,33.62-18.74,9.15-4.82,18.73-9.22,28.3-13.17,4.04-1.69,8.12-3.24,12.26-4.65,2.55-1.2,5.21-2.07,7.97-2.61l-43.86-12.36,50.61,14.32c-2.99-1.1-5.98-2.17-8.99-3.23-11.31-4.02-22.63-8.04-33.94-12.05-11.31-4.01-22.63-8.03-33.95-12.03-3-1.07-6-2.13-9.01-3.16-12.84,5.55-25.46,11.74-37.99,17.97-6.87,3.33-13.61,6.92-20.22,10.76-8.03,4.69-15.97,9.52-23.83,14.5l-6.81,3.8c-4.52,2.63-9.19,4.98-14,7.04-2.3,.54-4.47,1.4-6.51,2.6-2.87,1.27-5.76,2.51-8.66,3.72l-5.63,2.57c-2.91,1.76-5.99,3.13-9.23,4.11-3.09,1.58-6.25,3.04-9.46,4.37-2.44,.87-4.78,1.96-7.01,3.27-7.56,4.09-15.34,7.73-22.87,11.87-7.95,4.37-15.72,9.06-23.79,13.23-4,2.17-8.14,4.03-12.41,5.6-3.6,1.32-7.2,2.65-10.8,3.99-10.1,3.92-19.34,9.59-29.21,14.01-4.61,2.01-9.27,3.89-13.98,5.64-3.23,1.08-6.33,2.47-9.28,4.18-2.43,1.18-4.89,2.29-7.38,3.35-2.34,.96-4.62,2.04-6.85,3.24-2.98,1.3-5.99,2.52-9.03,3.67-3.76,1.07-7.53,2.06-11.33,2.97-4.98,1.24-9.97,2.36-15.02,3.26-2.95,.38-5.88,.93-8.76,1.67-1.95,1.91-4.04,3.65-6.26,5.22l86.99,24.64c-.2-2.05-.28-4.1-.23-6.15,.2-1.54,0-3.02-.59-4.45l-2.36-.25c-4.81-.48-9.63-.95-14.44-1.41-16.43-1.59-32.87-3.18-49.3-4.76l-14.69-1.41c-3.15-.31-6.31-.61-9.46-.87Z"/><path class="cls-1" d="M152.16,334.57c4.4-.19,8.71,.39,12.91,1.75,9.01,2,18.02,3.96,27.05,5.87,1.12,.25,2.23,.49,3.36,.7,3.04,.06,6-.36,8.87-1.26l-14.07-1.6c.6,.5,1.26,.77,1.99,.82,1.24,.1,2.49,.18,3.73,.25,3.61,.23,7.3,.67,10.92,.65,2.67-.02,6.24-.82,8.71-1.48,4.46-1.42,8.73-3.28,12.82-5.57,3.66-1.67,7.27-3.43,10.83-5.29,2.92-1.92,5.96-3.64,9.12-5.15,3.04-.94,6.09-1.81,9.17-2.6,5.75-2.19,11.18-5.3,16.81-7.76,6.17-2.58,12.31-5.21,18.43-7.9,5.96-2.22,11.77-4.79,17.42-7.7,4.13-2.62,8.15-5.38,12.08-8.29,3.1-2.03,6.23-3.99,9.42-5.87,3.41-2.07,6.83-4.12,10.25-6.16,5.41-2.66,10.88-5.19,16.41-7.59,4.84-2.33,9.82-4.31,14.94-5.93,3.26-1.19,6.45-2.56,9.55-4.12,2.19-.83,4.45-1.31,6.77-1.44,2.26-.07,4.41-.65,6.44-1.73,3.5-2.36,6.91-4.83,10.24-7.42,3.62-2.13,7.32-4.13,11.09-5.97,2.74-1.81,5.31-3.84,7.69-6.1,3.18-2.6,6.7-4.6,10.58-6.02l6.72-2.88c6.3-3.1,12.41-6.56,18.33-10.37,12.84-7.37,26.14-13.76,39.91-19.21,4.01-1.62,8.07-3.08,12.2-4.36,2.51-1.17,5.14-1.92,7.9-2.23l-.41-.04,4.06,.46-15.07-3.1,3.77,1.37c2.32,.84,4.78,1.41,7.15,2.08,1.89,.54,3.77,1.07,5.66,1.6,.5,.15,1,.28,1.51,.39-.89-1.32-2.03-2.13-3.41-2.44-1.21-.27-2.42-.53-3.63-.77-3.53-.73-7.08-1.64-10.65-2.17s-7.18,.51-10.45,1.74c-7.64,2.88-15.25,5.73-22.75,8.99-6.81,2.89-13.51,6.02-20.09,9.4-7.82,4.28-15.54,8.73-23.17,13.34-8.08,4.22-16.72,7.02-24.07,12.57l-3.61,2.81c-2.94,2.14-6.05,4.01-9.33,5.6-3.91,2.14-7.6,4.61-11.09,7.39-2.59,1.92-5.45,3.22-8.59,3.9-3.2,.37-6.29,1.16-9.28,2.35-3.14,1.48-6.33,2.84-9.57,4.09-3.87,1.3-7.65,2.8-11.35,4.51-4.01,1.76-8,3.54-11.98,5.36-9.69,4.54-18.92,9.99-27.78,15.98-3.79,2.8-7.72,5.4-11.79,7.8-5.68,2.84-11.49,5.4-17.42,7.68-8.58,3.65-17.11,7.38-25.56,11.31-3.17,1.54-6.39,2.96-9.66,4.25-3.21,.9-6.37,1.97-9.48,3.19-3.08,1.45-6.07,3.09-8.95,4.91-3.55,1.91-7.15,3.7-10.82,5.38-6.87,3.24-13.87,5.86-21.05,8.3l15.06,.91-26.53-2.62,.4,.08-8.63-1.68,17.48,4.16c-1.96-1.77-3.74-3.7-5.34-5.79-1.29-2.24-3.27-3.57-5.95-3.97-.92,.06-1.83,.14-2.75,.24-3.45,.35-6.9,.69-10.35,1.05-3.45,.35-6.9,.71-10.35,1.07-.92,.08-1.83,.19-2.74,.32Z"/><path class="cls-1" d="M156.8,360.44c4.38,1.24,8.39,3.25,12.01,6.03,7.09,4.71,14.25,9.3,21.5,13.76,3.05,1.87,6.33,2.53,9.85,2,1.67-1.21,3.52-1.92,5.57-2.13,2.21-.32,4.41-.73,6.59-1.22,2.98-.53,5.86-1.44,8.63-2.73,4.16-2.08,8.34-4.11,12.55-6.09,3.2-1.47,6.26-3.18,9.19-5.14,2.75-1.8,5.74-3.02,8.96-3.65,3.38-.65,6.59-1.81,9.61-3.47,6.26-3,12.55-5.83,18.94-8.55,7.57-3.34,15.18-6.58,22.83-9.72,4.31-1.8,8.33-4.11,12.06-6.93,3.87-2.91,7.88-5.6,12.04-8.06,3.43-2.06,6.85-4.12,10.28-6.18,3.67-2.35,7.54-4.34,11.6-5.96,5.19-2.36,10.41-4.68,15.64-6.95,4.13-1.37,8.2-2.88,12.21-4.55,2.94-1.74,6.09-2.89,9.45-3.46,2.23,.1,4.34-.29,6.35-1.19,2.59-.7,4.86-2.04,6.78-4.02,3.44-2.94,7.19-5.38,11.27-7.32,3.43-1.37,6.56-3.24,9.4-5.59,2.36-2.25,4.9-4.26,7.63-6.04,4.41-2.24,8.91-4.29,13.49-6.14,10.31-5.05,19.79-11.58,29.99-16.86,6.53-3.35,13.19-6.44,19.96-9.27,5.44-2.44,10.98-4.64,16.61-6.6,2.65-.81,5.26-1.72,7.84-2.74,3.7-1.5,7.18-.82,10.42,2.05-.51-.4-1.04-.78-1.58-1.14-2.01-1.4-4.01-2.79-6.02-4.18-2.01-1.39-4.02-2.78-6.04-4.16-.53-.38-1.07-.74-1.62-1.07-2.23-1.32-4.6-1.65-7.11-.99-2.73,.47-5.35,1.3-7.86,2.48-6.91,2.61-13.71,5.32-20.47,8.31-6.75,2.93-13.4,6.07-19.95,9.43-7.87,4.27-15.64,8.7-23.32,13.3l-6.63,3.27c-4.71,1.86-9.24,4.07-13.6,6.65-2.57,1.73-5.08,3.52-7.55,5.39-2.99,2.09-6.13,3.93-9.43,5.51l-5.68,3.35c-3.19,2.46-6.56,4.61-10.12,6.46-2.74,1.12-5.59,1.88-8.52,2.29-2.47,.64-4.84,1.52-7.11,2.66-2.34,1.09-4.72,2.11-7.13,3.05-5.09,1.81-10.07,3.88-14.94,6.22-5.54,2.43-11.01,5.02-16.4,7.77l-6.78,3.92c-4.39,2.51-8.7,5.14-12.94,7.89-3.91,2.76-7.93,5.34-12.08,7.73-3.82,1.93-7.71,3.69-11.69,5.28-5.71,2.41-11.41,4.86-17.09,7.36-4.76,2.02-9.47,4.16-14.13,6.4-3.16,1.54-6.38,2.98-9.65,4.29-2.37,.69-4.7,1.48-6.99,2.38-2.36,.79-4.61,1.83-6.76,3.12-7.09,3.84-14.09,8.06-21.67,10.92l-6.66,2.28c-2.85,1.16-5.71,2.3-8.58,3.4-.64,.56-1.11,1.25-1.43,2.05-4.75-1.29-9.26-3.13-13.55-5.55l15.32,10.45c-1.81-2.65-3.58-5.32-5.31-8.03-1.31-2.84-3.46-4.86-6.46-6.06-.75-.23-1.51-.45-2.27-.63-2.86-.76-5.72-1.51-8.59-2.26-2.86-.75-5.73-1.5-8.59-2.24-.76-.21-1.52-.4-2.29-.56Z"/><path class="cls-1" d="M171.23,354.12c-.72,9.67,.97,12.1,5.06,7.29,3.02-1.19,6.16-1.84,9.4-1.95,2.33-.17,4.65-.41,6.97-.73,2.96-.2,5.76-1.06,8.4-2.58,4-2.03,8.08-3.9,12.23-5.59,2.4-.98,4.71-2.15,6.92-3.49,2.23-1.32,4.51-2.54,6.85-3.65,3.11-.9,6.21-1.83,9.31-2.78,3.3-1.47,6.53-3.08,9.69-4.81l6.92-2.93c6.3-2.51,12.53-5.2,18.68-8.07,5.93-2.31,11.72-4.94,17.36-7.89l5.84-3.69c3.77-2.62,7.69-5.01,11.74-7.17,4.59-2.59,9.15-5.24,13.67-7.95,4.14-2.01,8.29-3.99,12.45-5.95,3.85-1.84,7.73-3.64,11.62-5.4,4.19-1.47,8.32-3.1,12.38-4.89,2.23-1.44,4.62-2.46,7.17-3.05,2.15-.73,4.36-1.17,6.63-1.33,3.43-.86,6.4-2.55,8.9-5.08,3.4-2.71,7.11-4.89,11.12-6.56l5.42-2.65c2.67-1.7,5.16-3.62,7.48-5.77,3.09-2.42,6.54-4.18,10.35-5.27l6.87-3.11c6.29-3.35,12.46-6.9,18.52-10.65,7.62-4.49,15.43-8.61,23.44-12.36,8.16-3.83,16.53-7.55,25-10.64,2.68-.89,5.32-1.88,7.92-2.97,3.66-1.65,7.3-1.34,10.92,.93-3.24-1.36-6.5-2.69-9.76-4.01-12.28-5-24.56-10-36.84-14.99-12.28-5-24.57-9.99-36.85-14.97-3.25-1.33-6.51-2.65-9.79-3.94-12.82,6.01-25.54,12.31-38.19,18.67-6.89,3.39-13.66,7.02-20.29,10.9-8.05,4.73-16.03,9.57-23.95,14.53l-6.81,3.74c-4.51,2.57-9.15,4.87-13.93,6.88-2.26,.47-4.4,1.27-6.41,2.41-2.87,1.2-5.74,2.41-8.61,3.61l-5.63,2.6c-2.89,1.75-5.95,3.09-9.19,4.02-3.12,1.62-6.3,3.13-9.51,4.55-2.45,.91-4.8,2.03-7.04,3.36-7.59,4.15-15.39,7.89-22.97,12.05s-15.71,8.99-23.81,13.05c-3.96,2.08-8.06,3.87-12.28,5.35-3.56,1.24-7.11,2.5-10.65,3.8-10.16,3.89-19.39,9.69-29.3,14.13-4.59,1.99-9.23,3.86-13.91,5.61-3.23,1.06-6.32,2.44-9.26,4.15-2.44,1.2-4.91,2.34-7.4,3.42-2.32,.98-4.61,2.06-6.84,3.24-2.96,1.27-5.95,2.47-8.97,3.61-3.71,1.06-7.44,2.06-11.19,3-5,1.34-10,2.69-15.03,3.91-2.99,.6-5.94,1.35-8.85,2.26-1.8,1.96-3.72,3.79-5.76,5.5l93.44,30.58c.06-2.75,.22-5.5,.5-8.24-3.35-.67-6.71-1.32-10.07-1.95-12.67-2.41-25.34-4.81-38.02-7.21-12.67-2.4-25.35-4.8-38.02-7.19-3.36-.65-6.72-1.27-10.09-1.87l-1.1,2.05,2.54,.39c11.57,1.76,23.15,3.39,34.73,5.07,13.92,2.02,27.84,4.05,41.77,6.06,3.91,.57,7.82,1.13,11.73,1.69,2.12,.31,4.24,.61,6.37,.89Z"/><path class="cls-1" d="M74.06,340.99l98.66,5.44-97.61-7.5c41.69,31.73,75.61,35.97,101.76,12.74,2.99-1.21,6.09-1.89,9.3-2.05,2.31-.19,4.6-.45,6.89-.79,2.95-.23,5.74-1.09,8.36-2.6,4.02-2.02,8.11-3.88,12.28-5.58,2.41-.99,4.73-2.15,6.96-3.49,2.24-1.31,4.53-2.52,6.88-3.64,3.08-.91,6.16-1.85,9.23-2.82,3.29-1.47,6.52-3.07,9.68-4.79l6.93-2.94c6.3-2.52,12.52-5.22,18.67-8.09,5.91-2.32,11.69-4.95,17.32-7.88l5.89-3.67c3.82-2.59,7.77-4.97,11.86-7.13,4.62-2.58,9.2-5.23,13.74-7.93,4.13-2.01,8.27-4,12.42-5.96,3.84-1.85,7.7-3.65,11.58-5.41,4.17-1.48,8.27-3.12,12.31-4.92,2.22-1.43,4.6-2.45,7.14-3.06,2.12-.72,4.3-1.18,6.54-1.37,3.41-.89,6.39-2.57,8.93-5.05,3.45-2.67,7.19-4.85,11.22-6.53l5.41-2.63c2.7-1.69,5.24-3.6,7.61-5.73,3.12-2.39,6.59-4.15,10.39-5.27l6.85-3.12c6.29-3.35,12.46-6.9,18.53-10.65,7.61-4.48,15.41-8.6,23.4-12.35,8.14-3.84,16.47-7.56,24.9-10.68,2.66-.91,5.28-1.9,7.87-2.99,2.46-1.04,5-1.37,7.64-.97-3.27-.86-6.55-1.69-9.84-2.5-12.37-3.11-24.75-6.22-37.13-9.32-12.38-3.1-24.75-6.2-37.13-9.3-3.28-.83-6.56-1.64-9.85-2.43-5.69,2.58-11.23,5.49-16.84,8.25-8.48,4.16-17.02,8.23-25.37,12.65-8.02,4.3-15.9,8.84-23.65,13.6-4.97,3.32-10.09,6.4-15.35,9.23-3.44,1.92-6.91,3.79-10.4,5.61-3.17,1.86-6.53,3.22-10.06,4.09-2.31,1.11-4.65,2.13-7.02,3.09l-5.11,2.14c-3.77,1.63-7.48,3.39-11.13,5.28-2.95,.85-5.74,2.06-8.38,3.63l-4.85,2.23c-3.31,1.31-6.48,2.89-9.53,4.74-8.17,4.41-16.5,8.46-24.58,13.05-8.57,4.88-17.17,9.94-26.26,13.82-5.39,2.3-11.02,3.98-16.48,6.09-12.48,4.82-23.84,12.05-36.27,17.01l-6.94,2.7c-3.24,1.08-6.33,2.47-9.3,4.17-4.7,2.29-9.5,4.41-14.25,6.59-3,1.27-6.03,2.47-9.08,3.6-3.83,1.09-7.67,2.13-11.52,3.11-5.14,1.38-10.27,2.74-15.44,4.02-3.06,.66-6.09,1.47-9.07,2.44-1.72,2.01-3.57,3.89-5.55,5.64l94.47,19.81,.36-3.7c2.68-4.76,2.46-6.99-.67-6.69-8.36-.35-16.74-.59-25.1-.88-15.28-.52-30.57-1.03-45.85-1.54-6.65-.23-13.29-.45-19.94-.65-2.15-.08-4.31-.14-6.46-.19Z"/><path class="cls-1" d="M122.3,349.08c23.6,26.72,44.27,33.01,62.01,18.88,2.79-.88,5.63-1.18,8.54-.9,2.25-.04,4.5-.16,6.75-.38,2.86-.04,5.58-.8,8.13-2.27,3.97-1.91,7.99-3.69,12.08-5.33,2.43-1,4.76-2.18,6.99-3.54,2.24-1.33,4.53-2.57,6.87-3.72,3.1-.93,6.2-1.88,9.29-2.83,3.24-1.5,6.44-3.07,9.6-4.74l6.9-2.89c6.34-2.53,12.59-5.26,18.77-8.17,5.87-2.32,11.62-4.91,17.25-7.77l5.81-3.61c3.81-2.57,7.74-4.96,11.77-7.15,4.63-2.67,9.23-5.4,13.8-8.18,4.15-2.1,8.33-4.15,12.53-6.16,3.84-1.88,7.71-3.69,11.61-5.43,4.18-1.47,8.3-3.08,12.36-4.85,2.21-1.45,4.59-2.45,7.13-3,2.13-.68,4.32-1.1,6.56-1.26,3.37-.86,6.31-2.5,8.83-4.92,3.46-2.72,7.22-4.92,11.29-6.57l5.31-2.61c2.7-1.7,5.21-3.63,7.55-5.79,3.15-2.33,6.6-4.11,10.35-5.35l6.91-3.27c6.34-3.42,12.57-7.03,18.69-10.83,7.61-4.52,15.42-8.65,23.43-12.39,8.11-3.79,16.46-7.47,24.88-10.51,2.66-.87,5.28-1.84,7.87-2.91,3.6-1.65,7.16-1.31,10.69,1-1.59-.83-3.2-1.64-4.81-2.43-6.06-3.01-12.13-6.02-18.2-9.03-6.07-3.01-12.14-6.01-18.21-9.01-1.6-.81-3.22-1.59-4.84-2.36-2.58,.81-5.15,1.65-7.72,2.52-2.72,1.19-5.44,2.41-8.14,3.64-6.92,3.09-13.83,6.17-20.67,9.44-6.8,3.16-13.47,6.59-19.99,10.3-8.21,4.7-16.32,9.57-24.33,14.61l-6.89,3.92c-4.64,2.8-9.41,5.36-14.31,7.69-2.31,.74-4.49,1.78-6.53,3.11-2.83,1.42-5.69,2.77-8.59,4.03l-5.85,2.64c-2.94,1.82-6.05,3.28-9.33,4.36-3.01,1.47-6.11,2.73-9.29,3.77-2.32,.76-4.54,1.73-6.66,2.92-7.5,3.84-15.24,7.16-22.67,11.15-8.21,4.42-16.16,9.32-24.28,13.9-7.62,4.3-15.48,7.61-23.57,10.88-3.78,1.43-7.47,3.07-11.06,4.91-6.08,2.85-12.11,5.79-18.1,8.82-4.57,2.03-9.2,3.9-13.89,5.63-3.12,1.12-6.13,2.51-9.01,4.17-2.44,1.1-4.88,2.19-7.33,3.25-2.38,.98-4.68,2.12-6.91,3.43-3.07,1.5-6.18,2.88-9.34,4.17-3.62,1.15-7.28,2.17-10.97,3.04l-5.11,1.13c-2.84,.18-5.67,.34-8.51,.5-2.4-.59-4.83-.94-7.29-1.05-2.53,1.25-5.17,2.16-7.93,2.72l45.97,22.25c-1.14-2.24-2.18-4.54-3.1-6.87-.48-2.15-1.7-3.77-3.67-4.86-1.72-.38-3.44-.73-5.17-1.07-6.51-1.3-13.02-2.6-19.53-3.9-6.51-1.3-13.02-2.59-19.53-3.88-1.72-.35-3.45-.68-5.19-.99Z"/><path class="cls-1" d="M147.69,340.78c4.02,.03,7.93,.73,11.71,2.12,10.79,3.04,21.63,5.85,32.53,8.43,3.09,.95,6.11,.78,9.08-.51,2.31-.93,4.71-1.28,7.19-1.05,2.29-.06,4.58-.2,6.87-.43,2.86-.07,5.58-.81,8.15-2.24,4.01-1.9,8.06-3.72,12.15-5.44,3.3-1.46,6.48-3.17,9.53-5.12,2.79-1.84,5.81-3.11,9.06-3.81,3.44-.77,6.7-2.03,9.77-3.77,6.07-2.97,12.31-5.48,18.52-8.14,7.71-3.52,15.47-6.89,23.3-10.12,4.03-1.69,7.82-3.79,11.4-6.3,7.36-4.7,14.82-9.22,22.27-13.8,3.77-2.45,7.72-4.57,11.86-6.37,5.18-2.54,10.41-4.97,15.69-7.28,4.17-1.44,8.29-3.02,12.36-4.73,2.87-1.73,5.95-2.89,9.24-3.47,2.32,0,4.52-.47,6.61-1.43,2.49-.71,4.69-2,6.58-3.86,3.53-2.79,7.36-5.07,11.49-6.83,3.26-1.3,6.25-3.06,8.98-5.27,2.27-2.17,4.75-4.06,7.45-5.67,4.53-2.23,9.07-4.43,13.63-6.61,10.33-5.4,20.07-11.82,30.39-17.23,6.49-3.41,13.12-6.54,19.87-9.39,5.47-2.47,11.03-4.72,16.68-6.74,2.65-.84,5.27-1.78,7.85-2.82,2.49-1,5.05-1.23,7.68-.69l-25.45-5.75c28.29,8.43,37.51,10.89,27.66,7.38-1.99-.66-3.98-1.31-5.98-1.95-5.83-1.88-11.65-3.89-17.53-5.61-2.71-.87-5.5-.55-8.37,.95-2.12,.62-4.2,1.36-6.22,2.23-7.66,3.11-15.31,6.18-22.85,9.6-6.74,2.99-13.35,6.25-19.82,9.79-8.13,4.51-16.18,9.17-24.15,13.96-8.03,4.51-16.36,8.67-24.11,13.65l-3.57,2.43c-2.67,1.69-5.45,3.21-8.32,4.54-4.16,1.83-8.15,3.96-11.98,6.39-2.65,1.21-5.36,2.3-8.11,3.28-3,.68-5.94,1.57-8.81,2.68-3.34,1.62-6.72,3.14-10.14,4.56-3.85,1.46-7.63,3.1-11.32,4.92-4.14,1.9-8.19,3.97-12.16,6.21-9.75,5.35-18.89,11.69-28.65,17.02-8.89,4.87-18.22,8.54-27.45,12.71-6.45,3.16-13,6.12-19.63,8.89l-6.95,2.8c-3,1.19-5.93,2.52-8.8,4-3.29,1.23-6.54,2.53-9.77,3.92-3.16,1.71-6.33,3.4-9.51,5.08-3.5,1.84-7.14,3.37-10.92,4.58-3.57,1.3-7.2,2.39-10.9,3.27-3.11,.33-6.22,.62-9.34,.88l2.71,.5c-2.8-.85-5.65-1.26-8.55-1.23-3.72,.63-7.46,.72-11.21,.26l26.54,7.17c-1.52-2.02-2.87-4.14-4.06-6.36-.79-2.25-2.38-3.75-4.74-4.5-1.24-.03-2.48-.03-3.71,0-4.67,.03-9.34,.07-14.01,.11-4.67,.04-9.34,.08-14.01,.13-1.24,0-2.48,.02-3.71,.07Z"/><path class="cls-1" d="M175.59,361.75l4.93,10.33,2.72-2.38c2.91-1.04,5.92-1.51,9.01-1.41,2.3-.08,4.59-.26,6.87-.51,2.92-.1,5.68-.9,8.28-2.39,3.96-1.97,8-3.79,12.11-5.44,2.41-.98,4.71-2.14,6.92-3.49,2.22-1.33,4.51-2.55,6.84-3.67,3.11-.89,6.22-1.8,9.31-2.74,3.28-1.48,6.49-3.07,9.66-4.78l6.89-2.9c6.32-2.51,12.55-5.21,18.71-8.09,5.92-2.31,11.69-4.92,17.33-7.83l5.8-3.68c3.77-2.62,7.67-5.01,11.71-7.18,4.6-2.62,9.17-5.3,13.7-8.04,4.15-2.04,8.31-4.05,12.49-6.03,3.85-1.86,7.73-3.66,11.64-5.41,4.19-1.46,8.32-3.08,12.39-4.86,2.22-1.46,4.61-2.47,7.17-3.03,2.15-.7,4.36-1.12,6.62-1.26,3.42-.86,6.38-2.54,8.87-5.06,3.4-2.74,7.11-4.94,11.15-6.59l5.39-2.61c2.67-1.71,5.16-3.65,7.47-5.83,3.11-2.39,6.55-4.15,10.34-5.28l6.89-3.16c6.31-3.38,12.51-6.96,18.58-10.75,7.62-4.51,15.44-8.64,23.47-12.39,8.14-3.81,16.51-7.51,24.97-10.56,2.67-.87,5.31-1.85,7.91-2.92,3.68-1.66,7.3-1.29,10.88,1.11-2.51-1.25-5.03-2.48-7.56-3.69-9.53-4.6-19.05-9.19-28.59-13.78-9.53-4.59-19.06-9.18-28.59-13.76-2.52-1.23-5.06-2.43-7.6-3.62-12.69,5.24-25.1,11.29-37.42,17.35-6.88,3.29-13.61,6.86-20.2,10.71-8.19,4.79-16.28,9.73-24.28,14.82l-6.86,3.83c-4.56,2.69-9.25,5.1-14.09,7.23-2.27,.52-4.4,1.39-6.4,2.6-2.83,1.27-5.68,2.5-8.55,3.69l-5.73,2.62c-2.88,1.81-5.96,3.18-9.21,4.11-3.09,1.57-6.24,2.99-9.45,4.27-2.39,.82-4.67,1.87-6.85,3.15-7.57,4.07-15.38,7.67-22.92,11.81-8.08,4.44-15.94,9.26-24.1,13.55-4,2.23-8.15,4.14-12.43,5.74-3.53,1.32-7.07,2.62-10.61,3.91-10.15,3.87-19.38,9.56-29.28,13.99-4.55,1.99-9.16,3.83-13.83,5.52-3.18,1.03-6.21,2.38-9.09,4.07-2.42,1.16-4.87,2.26-7.35,3.31-2.34,.96-4.61,2.04-6.83,3.25-2.97,1.31-5.98,2.53-9.02,3.68-3.57,.98-7.16,1.85-10.78,2.6-4.58,.99-9.27,1.98-13.96,2.3-2.65-.08-5.3,.04-7.93,.34-2,1.63-4.14,3.06-6.42,4.28l71.25,31.98c-.58-2.92-1-5.86-1.27-8.83-2.56-.74-5.12-1.46-7.68-2.16-9.67-2.68-19.34-5.35-29.02-8.02-9.67-2.67-19.35-5.34-29.02-8-2.56-.72-5.13-1.41-7.7-2.09l-1.69,1.64c2.58,.61,5.16,1.2,7.75,1.76,9.75,2.17,19.51,4.34,29.26,6.5,9.75,2.17,19.51,4.33,29.26,6.48,2.58,.58,5.17,1.15,7.77,1.68Z"/><path class="cls-1" d="M170.59,349.13c7.55,4.38,15.27,5.75,23.17,4.11,3.15-.98,6.18-2.23,9.11-3.74,5.37-2.58,10.96-4.65,16.15-7.6,2.23-1.31,4.52-2.52,6.86-3.64,3.1-.91,6.19-1.85,9.27-2.81l4.95-2.34c3.74-2.11,7.62-3.9,11.65-5.39,4.34-1.71,8.64-3.54,12.88-5.5,5.74-2.58,11.51-5.11,17.31-7.57,3.08-1.3,6-2.87,8.76-4.74,2.97-1.84,5.92-3.72,8.84-5.64,4.26-2.4,8.51-4.82,12.76-7.25l6.83-4.01c5.51-2.67,11.04-5.31,16.57-7.93,3.63-1.89,7.38-3.51,11.23-4.88,2.91-1.05,5.77-2.21,8.59-3.48,2.22-1.44,4.61-2.46,7.16-3.06,2.14-.73,4.33-1.18,6.59-1.36,3.42-.88,6.39-2.56,8.91-5.06l5.63-3.8c3.64-1.81,7.3-3.6,10.96-5.37,3.93-2.48,7.15-5.87,11.19-8.17,3.42-1.37,6.8-2.83,10.15-4.38,3.53-1.5,6.93-3.25,10.2-5.27,7.7-4.67,15.51-9.16,23.43-13.45l11.75-5.86c8.15-3.9,16.49-7.51,24.95-10.68,2.67-.9,5.3-1.9,7.9-2.98,3.6-1.65,7.2-1.38,10.79,.8-3.2-1.17-6.42-2.32-9.63-3.44-12.13-4.29-24.25-8.58-36.38-12.86-12.13-4.29-24.26-8.57-36.39-12.84-3.21-1.15-6.43-2.27-9.66-3.37-12.79,6.06-25.51,12.36-38.15,18.73-6.88,3.39-13.63,7.02-20.25,10.88-8.01,4.7-15.96,9.51-23.83,14.45l-6.8,3.74c-4.52,2.58-9.17,4.88-13.97,6.9-2.28,.48-4.43,1.29-6.46,2.43-2.88,1.21-5.76,2.42-8.64,3.63l-5.64,2.58c-2.9,1.74-5.98,3.08-9.21,4.03-3.12,1.62-6.28,3.14-9.5,4.56-2.45,.92-4.79,2.04-7.04,3.37-7.57,4.15-15.34,7.88-22.9,12.04s-15.67,8.98-23.75,13.02c-3.99,2.09-8.1,3.88-12.35,5.37-3.59,1.25-7.17,2.53-10.74,3.84-10.13,3.89-19.35,9.66-29.24,14.09-4.61,2-9.27,3.88-13.97,5.64-3.23,1.07-6.32,2.46-9.28,4.16-2.44,1.2-4.9,2.34-7.4,3.4-2.33,.98-4.61,2.05-6.85,3.23-2.98,1.26-5.99,2.46-9.02,3.6-3.77,1.07-7.55,2.09-11.35,3.05-5.07,1.37-10.14,2.72-15.24,3.98-3.03,.64-6.01,1.43-8.96,2.37-1.74,1.99-3.61,3.86-5.6,5.6l93,25.08c.14-2.72,.39-5.44,.76-8.14,.02-.2-48.9-6.57-47.95-6.45-12.64-1.69-25.27-3.37-37.91-5.05-3.35-.46-6.7-.89-10.06-1.3l-1.05,2.06,2.54,.25c11.54,1.12,23.1,2.09,34.65,3.12,13.89,1.24,27.78,2.49,41.67,3.72-.58-.05,18.04,1.4,18.04,1.57Z"/><path class="cls-1" d="M106.78,343.23c32.17,33.84,58.77,41.02,79.79,21.53,2.92-1.03,5.92-1.5,9.01-1.4,2.29-.09,4.57-.26,6.85-.52,2.92-.11,5.68-.9,8.29-2.39,3.98-1.97,8.03-3.78,12.16-5.44,2.41-.98,4.72-2.15,6.94-3.5,2.23-1.32,4.52-2.54,6.86-3.67,3.1-.89,6.19-1.81,9.28-2.76,3.27-1.48,6.5-3.07,9.66-4.77l6.91-2.91c6.31-2.52,12.55-5.22,18.7-8.1,5.91-2.31,11.68-4.92,17.32-7.82l5.83-3.67c3.79-2.61,7.71-5.01,11.77-7.18,4.61-2.63,9.18-5.31,13.73-8.05,4.14-2.05,8.3-4.06,12.48-6.03,3.85-1.86,7.72-3.66,11.62-5.41,4.18-1.46,8.3-3.08,12.36-4.87,2.21-1.46,4.6-2.46,7.15-3.02,2.14-.69,4.33-1.12,6.58-1.27,3.41-.87,6.38-2.55,8.9-5.04,3.42-2.73,7.14-4.92,11.18-6.58l5.39-2.61c2.69-1.71,5.2-3.65,7.53-5.82,3.12-2.38,6.57-4.15,10.36-5.3l6.88-3.17c6.31-3.38,12.5-6.96,18.58-10.75,7.61-4.5,15.43-8.63,23.44-12.38,8.13-3.81,16.49-7.51,24.94-10.56,2.67-.88,5.3-1.85,7.89-2.93,3.63-1.65,7.21-1.3,10.75,1.06-2.47-1.07-4.94-2.12-7.43-3.15-9.35-3.93-18.7-7.85-28.05-11.77-9.35-3.92-18.71-7.84-28.06-11.75-2.48-1.05-4.96-2.08-7.45-3.08-2.73,1.12-5.48,2.21-8.24,3.27-2.76,1.34-5.53,2.65-8.32,3.95-6.99,3.27-13.98,6.5-20.91,9.89-6.87,3.27-13.59,6.82-20.16,10.65-8.14,4.75-16.18,9.66-24.12,14.75l-6.84,3.85c-4.57,2.72-9.28,5.15-14.13,7.31-2.29,.56-4.44,1.45-6.45,2.69-2.84,1.3-5.7,2.55-8.58,3.74l-5.73,2.61c-2.89,1.81-5.97,3.19-9.23,4.15-3.08,1.56-6.23,2.95-9.45,4.19-2.39,.81-4.68,1.85-6.85,3.12-7.55,4.05-15.34,7.59-22.85,11.72-8.07,4.43-15.9,9.26-24.03,13.6-4.02,2.27-8.19,4.22-12.5,5.86-3.57,1.36-7.14,2.69-10.73,4.01-10.11,3.88-19.34,9.51-29.21,13.92-4.58,2-9.22,3.85-13.91,5.55-3.18,1.04-6.22,2.4-9.12,4.08-2.43,1.15-4.88,2.24-7.35,3.28-2.34,.95-4.63,2.03-6.85,3.25-2.99,1.33-6.02,2.56-9.09,3.71-3.63,1-7.3,1.88-11,2.64-4.67,.99-9.46,1.91-14.24,2.13-2.71-.15-5.42-.1-8.12,.15-2.03,1.64-4.2,3.06-6.51,4.26l70.94,27.31-.66-4c1.19-3.14,.7-4.79-1.45-4.96-6.21-1.41-12.45-2.71-18.67-4.06-11.37-2.45-22.74-4.9-34.11-7.35-4.94-1.07-9.89-2.13-14.83-3.18-1.6-.35-3.21-.68-4.81-1.01Z"/><path class="cls-1" d="M162.31,363.47c4.33,1.36,8.22,3.53,11.67,6.49,6.75,4.81,13.61,9.44,20.59,13.89,2.83,1.82,5.89,2.42,9.18,1.81,1.68-1.27,3.56-2.04,5.64-2.33,2.26-.31,4.5-.7,6.73-1.18,2.99-.49,5.88-1.39,8.65-2.69,4.14-2.09,8.31-4.12,12.5-6.1,3.21-1.47,6.27-3.19,9.21-5.15,2.75-1.8,5.74-3.01,8.96-3.63,3.39-.65,6.59-1.8,9.61-3.47,6.26-3.01,12.54-5.84,18.94-8.55,7.57-3.34,15.18-6.58,22.83-9.72,4.32-1.8,8.34-4.11,12.06-6.95,3.86-2.91,7.87-5.6,12.04-8.06,3.43-2.06,6.85-4.12,10.28-6.17,3.67-2.35,7.54-4.34,11.6-5.95,5.2-2.36,10.41-4.68,15.64-6.95,4.13-1.36,8.2-2.88,12.21-4.54,2.94-1.74,6.09-2.9,9.45-3.46,2.23,.11,4.34-.28,6.34-1.18,2.6-.7,4.87-2.05,6.79-4.05,3.43-2.95,7.19-5.39,11.27-7.32,3.43-1.36,6.56-3.22,9.39-5.58,2.35-2.26,4.89-4.28,7.63-6.05,4.41-2.23,8.9-4.27,13.49-6.11,10.31-5.06,19.79-11.59,29.99-16.87,6.53-3.35,13.19-6.44,19.96-9.26,5.44-2.44,10.98-4.64,16.61-6.6,2.65-.81,5.26-1.72,7.84-2.73,3.71-1.51,7.18-.81,10.41,2.1-.51-.4-1.03-.78-1.57-1.14-2-1.4-4-2.8-6-4.2-2-1.4-4-2.79-6.01-4.18-.53-.38-1.06-.74-1.61-1.08-2.18-1.37-4.52-1.74-7.02-1.1-2.72,.47-5.34,1.29-7.84,2.47-6.9,2.6-13.7,5.3-20.45,8.29-6.75,2.93-13.4,6.07-19.94,9.43-7.88,4.25-15.66,8.68-23.32,13.3l-6.64,3.3c-4.7,1.84-9.22,4.04-13.58,6.59-2.58,1.73-5.1,3.54-7.57,5.43-2.98,2.1-6.12,3.92-9.42,5.47l-5.69,3.34c-3.21,2.47-6.6,4.65-10.18,6.55-2.73,1.13-5.57,1.89-8.5,2.27-2.47,.62-4.83,1.51-7.1,2.64-2.34,1.1-4.71,2.12-7.12,3.05-5.09,1.8-10.07,3.87-14.93,6.21-5.54,2.43-11,5.02-16.39,7.76l-6.78,3.93c-4.38,2.5-8.7,5.12-12.93,7.86-3.92,2.77-7.96,5.36-12.11,7.76-3.82,1.93-7.72,3.7-11.69,5.29-5.71,2.41-11.41,4.86-17.08,7.36-4.76,2.01-9.47,4.14-14.13,6.39-3.17,1.56-6.38,3-9.65,4.32-2.36,.69-4.68,1.47-6.97,2.35-2.36,.78-4.61,1.81-6.75,3.1-2.97,1.83-6.03,3.51-9.16,5.05-4.09,2.09-8.24,4.06-12.45,5.91l-6.59,2.22c-2.97,1.14-5.95,2.24-8.95,3.31-.67,.72-1.18,1.55-1.54,2.48-4.31-1.17-8.37-2.93-12.17-5.28l14.59,10.34c-1.76-2.72-3.48-5.47-5.17-8.24-1.26-2.9-3.39-4.99-6.39-6.26-.71-.24-1.43-.46-2.16-.65-2.72-.78-5.45-1.56-8.18-2.33-2.73-.78-5.45-1.55-8.18-2.31-.72-.22-1.45-.41-2.18-.58Z"/></g></g><path d="M608.12,371c-25.41-13.26-54.32-25.73-83.57-23.08-14.76,1.19-27.96,8.06-40.66,15.21-19.07,10.85-39.06,21.56-60.8,26.13l-5.44,1.15c-5.4,.89-11.17,1.59-16.58,1.91-15.09,1.09-29.26-6.48-42.39-12.86-11.27-6.09-25.35-9.95-32.28-21.66-2.84-4.89-2.31-11.13,.56-15.88,4.94-9.35,14.74-7.91,22.32-3.02,3.26,2.02,6.17,4.35,8.92,7.05l-2.5,.57c3.31-10.5,14.66-16.52,24.55-10.36,8.63,5.74,7.28,16.25,2.31,24.03-3.22,5.03-7.6,9.59-12.32,13.27-11.76,8.17-25.15,13.4-38.44,18.4-6.18,2.1-12.41,4.58-18.89,5.67-12.38,1.25-24.95,1.43-37.29-.41-42.5-6.09-66.08-33.02-83.03-70.43-2.46-5.56-4.51-11.39-3.87-17.65l.11-3.53c.44-11.76,1.07-25.45,10.56-33.8,14.95-11.65,31.62-20.64,47.83-30.33,16.34-9.45,32.77-18.71,49.33-27.77l32-13,12.93-5.25c-16.49,11.51-59.33,40.07-75.45,52.04-9.13,6.86-22.46,16.65-31.56,23.47l-.19,.14-.1,.07-.02,.02c.39,.53-3.59-4.39-1.87-2.35l.06-.05c.56-.45,1.86-1.57,2.41-2.02-1.77-1.98,2.18,2.94,1.9,2.31-.72,.56-1.95,1.63-2.71,2.23l-.11,.09-.12,.07c-7.91,4.59-29.49,17.25-30.09,26.55l-.73-1.22c23.67,12.96,60.07,32.02,84.21,44.96l-2.05,.66,85.59-173.78,1.77,2.1c-75.92,23.12-193.6,56.24-267.83,81.77l.12-2.81c9.01,3.81,24.11,10.18,32.86,13.93,12.44,6.14,28.46,14.75,41.07,20.32l.7,.33,.02,.76,1.63,59.01-1.53-.54,29.21-33.82,.29-.33c.06,.11,77.98,33.58,78.16,33.72l-78.23-32.45,.68-.16-28.79,34.18-1.44,1.71-.09-2.25-2.37-58.99,.72,1.08c-2.46-1.14-11.41-5-13.92-6.35-6.14-3.02-21.26-10.46-27.39-13.49-8.89-3.73-23.87-10.12-32.77-13.91l-3.67-1.56,3.79-1.24c73.93-25.44,192.25-58.86,267.91-81.8l3.29-.98-1.52,3.08-85.59,173.78-.68,1.39-1.36-.73c-24.3-13.05-60.45-31.94-84.35-45.03l-.71-.39v-.83c.07-9.27,15.35-18.95,22.38-23.73,2.62-1.67,7.16-4.49,9.02-5.42,.78-.63,1.97-1.64,2.74-2.25l.09-.07c-.25-.65,3.69,4.29,1.9,2.32-.61,.54-1.9,1.59-2.51,2.11,1.7,2.07-2.29-2.84-1.87-2.34l.02-.02,.1-.07,.2-.15c4.17-3.1,14.81-11.01,19.12-14.21,4.12-3.06,14.74-10.96,18.73-13.92,1.63-1.08,54.29-37.26,57.75-39.55l1.41,2.63-32,13c-27.89,15.51-57.65,31.86-85.04,49.48-5.6,3.94-11.87,7.21-15.49,13.13-5.24,9.01-5.02,19.99-5.44,30.13l-.06,1.77c-.33,5.03,1.72,9.96,3.68,14.58,3.82,8.42,8.39,16.73,13.31,24.57,23.68,37.72,61.26,49.16,103.95,44.5,6.23-1.1,12.17-3.46,18.18-5.51,8.78-3.21,17.46-6.75,25.77-10.94,5.12-2.63,10.2-5.44,14.52-9.18,6.54-6.07,15.34-16.13,11.51-25.63-2.57-5.92-10.33-8.15-16.02-5.41-3.99,1.76-6.6,5.55-8.03,9.61l-.81,2.23-1.69-1.66c-5.33-5.01-14.85-12.76-22.4-9.03-4.07,2.5-6.5,7.97-6.1,12.7,.33,3.24,2.15,6.25,4.52,8.76,7.53,7.82,18.53,11.28,27.96,16.28,12.83,6.14,26.37,13.48,40.88,12.65,5.31-.19,11-.91,16.27-1.67l5.35-1.06,2.68-.53c2.29-.56,5.75-1.51,7.93-2.06l5.21-1.66c22.83-7.12,42.61-21.25,64.54-30.62,35.42-14.29,73.82,2.15,105.23,19.18h0Z"/><text class="cls-3" transform="translate(305.09 320.33)"><tspan x="0" y="0">Mriya</tspan></text></svg>
