<?xml version="1.0" standalone="no"?>
<!DOCTYPE svg PUBLIC "-//W3C//DTD SVG 20010904//EN"
 "http://www.w3.org/TR/2001/REC-SVG-20010904/DTD/svg10.dtd">
<svg version="1.0" xmlns="http://www.w3.org/2000/svg"
 width="1640.000000pt" height="924.000000pt" viewBox="0 0 1640.000000 924.000000"
 preserveAspectRatio="xMidYMid meet">

<g transform="translate(0.000000,924.000000) scale(0.100000,-0.100000)"
fill="#000000" stroke="none">
<path d="M6560 6120 l0 -820 165 0 165 0 0 292 c0 277 1 294 21 336 55 113
208 153 291 75 65 -60 68 -76 68 -405 l0 -298 171 0 170 0 -3 363 c-5 414 -5
420 -89 511 -57 62 -132 100 -247 123 -124 26 -236 -2 -329 -82 -23 -19 -44
-35 -47 -35 -3 0 -6 171 -6 380 l0 380 -165 0 -165 0 0 -820z"/>
<path d="M14730 6120 l0 -820 170 0 170 0 0 820 0 820 -170 0 -170 0 0 -820z"/>
<path d="M5816 6890 c-63 -16 -157 -66 -212 -112 -121 -102 -169 -213 -162
-371 3 -81 8 -100 38 -155 59 -110 141 -176 353 -280 207 -103 247 -134 254
-204 3 -29 -2 -54 -14 -78 -36 -70 -166 -106 -281 -76 -72 18 -221 91 -276
135 l-39 31 -88 -147 c-49 -82 -89 -151 -89 -154 0 -12 124 -88 202 -124 124
-57 230 -78 388 -78 105 0 152 5 213 21 158 43 265 120 321 232 44 89 59 163
54 265 -6 107 -44 181 -142 272 -59 54 -96 77 -216 135 -263 125 -304 150
-326 203 -27 66 21 141 104 165 84 23 188 4 315 -58 l77 -38 70 134 c39 74 70
139 70 144 0 19 -100 70 -205 105 -99 32 -123 36 -240 39 -71 2 -147 -1 -169
-6z"/>
<path d="M10530 6090 l0 -790 450 0 450 0 0 155 0 155 -272 2 -273 3 -3 633
-2 632 -175 0 -175 0 0 -790z"/>
<path d="M8130 6300 c-327 -52 -529 -320 -466 -618 40 -190 187 -334 396 -389
88 -23 273 -23 358 0 188 50 330 177 383 339 24 76 29 215 9 289 -44 163 -206
314 -390 364 -69 19 -218 27 -290 15z m206 -299 c96 -44 149 -157 125 -267
-36 -161 -232 -228 -370 -126 -66 49 -97 160 -70 255 13 49 73 115 124 138 52
24 138 24 191 0z"/>
<path d="M9450 6296 c-66 -15 -130 -47 -187 -94 l-43 -34 0 56 0 56 -165 0
-165 0 0 -740 0 -740 168 2 167 3 3 292 2 293 49 -35 c133 -96 337 -108 492
-29 30 15 81 54 114 88 102 104 145 216 145 376 -1 113 -11 163 -51 247 -94
198 -316 306 -529 259z m107 -301 c92 -46 138 -151 114 -261 -10 -44 -23 -66
-59 -104 -95 -98 -242 -95 -333 7 -46 51 -62 100 -57 173 12 165 184 260 335
185z"/>
<path d="M11935 6304 c-255 -41 -445 -203 -485 -413 -57 -300 130 -553 450
-607 221 -38 434 21 570 158 62 62 116 156 126 220 7 41 24 52 24 15 0 -12 16
-56 36 -97 71 -149 224 -264 396 -298 94 -18 206 -9 318 27 112 36 111 34 56
153 -64 141 -57 133 -97 112 -44 -22 -155 -30 -204 -14 -51 17 -114 76 -138
129 -24 54 -25 143 -2 196 57 137 202 181 365 111 12 -5 28 19 70 105 l55 111
-28 22 c-65 52 -253 86 -375 68 -113 -17 -227 -76 -312 -161 -67 -68 -124
-161 -136 -227 -8 -43 -20 -43 -27 0 -25 154 -203 322 -392 371 -63 16 -218
27 -270 19z m166 -294 c19 -5 54 -26 76 -45 103 -88 103 -262 -1 -353 -108
-95 -299 -56 -357 72 -21 47 -25 136 -8 187 38 112 165 174 290 139z"/>
<path d="M13835 6298 c-233 -44 -399 -280 -382 -543 9 -147 55 -253 152 -350
162 -162 437 -177 608 -34 l47 40 0 -55 0 -56 165 0 165 0 0 490 0 490 -164 0
-165 0 -3 -47 -3 -46 -30 25 c-94 79 -249 113 -390 86z m276 -288 c19 -5 54
-26 76 -45 103 -88 103 -262 -1 -353 -108 -95 -299 -56 -357 72 -21 47 -25
136 -8 187 38 112 165 174 290 139z"/>
<path d="M5696 4554 c-128 -40 -208 -135 -251 -299 -10 -41 -15 -107 -15 -217
l0 -158 -75 0 -76 0 3 -127 3 -128 73 -3 72 -3 0 -359 0 -360 165 0 165 0 0
360 0 360 105 0 105 0 -22 -52 c-19 -45 -22 -72 -22 -178 0 -107 3 -133 23
-182 61 -155 192 -265 371 -314 80 -21 271 -24 350 -5 250 60 420 264 420 501
0 193 -107 358 -292 449 -247 123 -546 80 -735 -105 l-73 -71 0 108 0 109
-116 0 -116 0 4 158 c5 173 17 216 64 228 27 7 98 1 126 -11 14 -5 27 14 73
105 31 62 54 118 51 125 -7 18 -101 61 -164 74 -71 15 -157 13 -216 -5z m915
-962 c78 -41 112 -94 117 -182 5 -87 -10 -133 -62 -184 -109 -109 -298 -80
-367 57 -28 53 -28 149 -1 209 50 115 196 161 313 100z"/>
<path d="M9770 3720 l0 -820 165 0 165 0 0 197 0 198 198 -198 197 -197 372 0
372 0 3 283 c3 273 4 284 26 330 35 69 91 100 183 99 53 0 82 -6 118 -24 l48
-24 71 142 71 142 -43 21 c-24 11 -73 26 -109 32 -56 10 -76 10 -133 -4 -79
-20 -150 -63 -199 -120 l-35 -41 0 72 0 72 -170 0 -170 0 0 -477 0 -478 -242
242 -243 243 235 235 235 235 -220 0 -220 0 -172 -172 -173 -173 0 503 0 502
-165 0 -165 0 0 -820z"/>
<path d="M8422 3893 l3 -588 26 -76 c62 -181 184 -291 373 -334 100 -23 222
-28 326 -15 264 34 414 157 477 390 16 59 18 121 18 635 l0 570 -177 3 -177 2
-3 -532 c-3 -475 -5 -538 -20 -576 -43 -107 -105 -146 -233 -146 -127 1 -196
42 -236 144 -11 27 -15 151 -19 570 l-5 535 -178 3 -178 2 3 -587z"/>
<path d="M13052 4463 c-74 -36 -120 -125 -108 -208 18 -116 125 -184 251 -161
73 14 145 108 145 191 0 74 -57 159 -123 184 -41 16 -127 13 -165 -6z"/>
<path d="M7720 3896 c-74 -20 -115 -44 -174 -103 l-56 -56 0 72 0 71 -165 0
-165 0 0 -490 0 -490 165 0 165 0 0 265 c0 242 2 269 20 319 23 60 73 112 118
121 15 4 35 8 45 10 29 6 123 -12 162 -31 20 -9 37 -15 38 -13 1 2 32 66 69
141 l68 138 -30 15 c-36 19 -145 45 -185 44 -16 0 -50 -6 -75 -13z"/>
<path d="M12063 3895 c-169 -37 -310 -180 -357 -361 -20 -78 -20 -213 -1 -289
87 -333 469 -482 730 -285 l65 49 0 -54 0 -55 165 0 165 0 0 490 0 490 -165 0
-165 0 0 -45 c0 -25 -3 -45 -6 -45 -3 0 -20 11 -36 25 -46 39 -103 65 -177 81
-81 17 -137 17 -218 -1z m318 -303 c78 -41 112 -94 117 -182 5 -87 -10 -133
-62 -184 -109 -109 -298 -80 -367 57 -28 53 -28 149 -1 209 50 115 196 161
313 100z"/>
<path d="M13997 3900 c-51 -13 -92 -35 -154 -81 l-53 -40 0 51 0 50 -170 0
-170 0 0 -490 0 -490 170 0 170 0 0 295 c0 332 1 339 69 397 100 86 224 66
284 -45 21 -40 22 -54 25 -344 l4 -303 164 0 164 0 0 353 c0 386 -3 413 -58
492 -37 54 -122 111 -199 135 -75 23 -194 33 -246 20z"/>
<path d="M14975 3897 c-198 -42 -374 -210 -415 -398 -27 -123 2 -285 69 -382
123 -179 325 -267 548 -238 158 20 258 66 346 160 82 88 84 82 -50 149 l-118
59 -54 -43 c-77 -60 -171 -80 -262 -53 -76 23 -139 97 -139 164 l0 25 355 0
355 0 0 58 c-1 241 -130 422 -350 486 -74 22 -211 28 -285 13z m185 -217 c54
-15 120 -93 120 -141 0 -5 -77 -9 -185 -9 l-185 0 0 24 c0 37 41 89 90 114 47
24 103 28 160 12z"/>
<path d="M12970 3390 l0 -490 165 0 165 0 0 490 0 490 -165 0 -165 0 0 -490z"/>
</g>
</svg>
